<?xml version="1.0" standalone="no"?>
<!DOCTYPE svg PUBLIC "-//W3C//DTD SVG 1.1//EN" "http://www.w3.org/Graphics/SVG/1.1/DTD/svg11.dtd" >
<svg xmlns="http://www.w3.org/2000/svg">
<metadata>Generated by IcoMoon</metadata>
<defs>
<font id="highlights" horiz-adv-x="1024">
<font-face units-per-em="1024" ascent="960" descent="-64" />
<missing-glyph horiz-adv-x="1024" />
<glyph unicode="&#x20;" horiz-adv-x="512" d="" />
<glyph unicode="&#x2665;" glyph-name="heart" horiz-adv-x="768" d="M384 96c399 314 384 425 384 512s-72 192-192 192-192-128-192-128-72 128-192 128-192-105-192-192-15-198 384-512z" />
<glyph unicode="&#xe900;" glyph-name="ac" d="M960.694 779.041h-883.523c-38.705 0-70.221-31.504-70.221-70.215v-257.377c0-64.406 52.386-116.756 116.771-116.756h790.42c64.385 0 116.785 52.35 116.785 116.756v257.377c0.006 38.719-31.51 70.215-70.23 70.215zM878.672 722.691v-66.35c0-26.076-21.206-47.305-47.284-47.305h-624.889c-26.084 0-47.276 21.229-47.276 47.305v66.35h719.449zM974.538 451.449c0-33.326-27.080-60.42-60.4-60.42h-790.435c-33.291 0-60.414 27.094-60.414 60.42v257.377c0 7.64 6.234 13.865 13.879 13.865h25.666v-66.35c0-57.141 46.514-103.655 103.655-103.655h624.86c57.156 0 103.67 46.514 103.67 103.655v66.35h25.674c7.646 0 13.844-6.225 13.844-13.865v-257.377zM906.839 479.63h-775.82c-15.554 0-28.181-12.615-28.181-28.181 0-15.546 12.629-28.146 28.181-28.146h775.82c15.561 0 28.181 12.6 28.181 28.146 0 15.569-12.621 28.181-28.181 28.181zM345.79 245.743c-0.925 0.551-1.809 1.046-2.629 1.54 13.256 5.71 20.219 20.72 15.616 34.684-4.884 14.741-20.79 22.79-35.566 17.929-6.996-2.284-42.075-15.391-45.141-46.626-2.070-21.469 11.42-40.549 40.146-56.646 9.271-5.221 11.476-9.145 11.561-9.815 0.284-3.944-7.364-14.24-14.755-19.985-12.401-9.364-14.875-27.036-5.499-39.446 5.519-7.329 13.956-11.2 22.494-11.2 5.915 0 11.886 1.874 16.931 5.695 4.085 3.074 39.581 31.024 37.015 68.731-1.019 15.461-8.855 37.566-40.175 55.141zM532.734 245.743c-0.954 0.551-1.809 1.046-2.636 1.54 13.265 5.71 20.182 20.72 15.596 34.684-4.861 14.741-20.77 22.79-35.574 17.929-6.996-2.284-42.055-15.391-45.086-46.626-2.106-21.469 11.405-40.549 40.111-56.646 9.3-5.221 11.505-9.145 11.569-9.815 0.275-3.944-7.37-14.24-14.741-19.985-12.424-9.364-14.882-27.036-5.511-39.446 5.54-7.329 13.964-11.2 22.515-11.2 5.894 0 11.865 1.874 16.939 5.695 4.070 3.074 39.574 31.024 37.015 68.731-1.039 15.461-8.875 37.566-40.195 55.141zM719.656 245.743c-0.934 0.551-1.824 1.046-2.621 1.54 13.256 5.71 20.182 20.72 15.596 34.684-4.869 14.741-20.796 22.79-35.595 17.929-6.969-2.284-42.046-15.391-45.086-46.626-2.091-21.469 11.434-40.549 40.117-56.646 9.314-5.221 11.519-9.145 11.555-9.815 0.319-3.944-7.329-14.24-14.726-19.985-12.401-9.364-14.89-27.036-5.505-39.446 5.54-7.329 13.971-11.2 22.5-11.2 5.915 0 11.871 1.874 16.96 5.695 4.041 3.074 39.574 31.024 36.995 68.731-1.039 15.461-8.855 37.566-40.189 55.141z" />
<glyph unicode="&#xe901;" glyph-name="credit-cards" d="M135.15 287.6h127.999v-63.963h-127.999v63.963zM327.14 287.6h319.974v-63.963h-319.974v63.963zM7.16 799.578v-703.926h1023.921v703.926h-1023.921zM967.096 159.601h-895.943v320.004h895.943v-320.004zM967.096 607.588h-895.943v127.99h895.943v-127.99z" />
<glyph unicode="&#xe902;" glyph-name="deal" d="M921.439 410.096l102.34 96.828-120.253 73.461 54.071 130.143-139.72 18.177-3.476 140.873-135.071-40.213-60.45 127.31-107.056-91.739-107.031 91.739-60.457-127.31-135.063 40.213-3.476-140.873-139.737-18.177 54.088-130.143-120.253-73.461 102.357-96.828-79.973-115.997 132.901-46.862-25.902-138.532 140.49 11.264 32.713-137.073 123.722 67.422 85.614-111.917 85.607 111.917 123.75-67.422 32.713 137.073 140.49-11.264-25.902 138.532 132.901 46.862-79.931 115.997zM800.778 286.329l21.010-112.24-113.825 9.134-26.489-111.069-100.22 54.64-69.405-90.703-69.346 90.703-100.262-54.64-26.496 111.069-113.825-9.134 21.010 112.24-107.71 37.947 64.818 93.996-82.95 78.455 97.422 59.5-43.826 105.429 113.224 14.733 2.815 114.148 109.439-32.594 48.982 103.13 86.7-74.318 86.717 74.318 48.965-103.13 109.457 32.594 2.808-114.148 113.206-14.733-43.799-105.436 97.412-59.5-82.943-78.455 64.818-93.996-107.702-37.939zM700.083 437.126c-8.031 8.287-17.717 14.8-28.812 19.38-22.096 9.075-50.026 9.050-71.848-0.017-10.899-4.59-20.525-11.095-28.507-19.355-8.031-8.277-14.325-18.311-18.753-29.814-4.393-11.408-6.642-24.223-6.642-38.091 0-13.426 2.256-25.972 6.657-37.209 4.418-11.356 10.737-21.281 18.771-29.501 8.016-8.193 17.66-14.631 28.559-19.091 10.899-4.445 22.918-6.692 35.743-6.692 11.806 0 23.283 2.249 34.182 6.692 10.832 4.445 20.535 10.814 28.777 18.975 8.21 8.133 14.86 17.973 19.797 29.269 4.97 11.383 7.472 24.021 7.472 37.549 0 13.868-2.256 26.675-6.632 38.091-4.46 11.527-10.772 21.544-18.761 29.814zM649.446 353.396c-0.942-3.546-2.172-6.252-3.63-8.118-1.163-1.501-2.443-2.502-3.944-3.079-3.876-1.543-9.303-1.568-13.028-0.042-1.357 0.534-2.477 1.469-3.521 2.85-1.339 1.866-2.552 4.734-3.409 8.235-1.019 4.147-1.543 9.517-1.543 15.988 0 6.836 0.527 12.511 1.561 16.87 0.907 3.782 2.13 6.878 3.511 8.881 1.026 1.459 2.172 2.418 3.384 2.927 1.884 0.763 4.055 1.121 6.411 1.121 2.425 0 4.664-0.398 6.632-1.121 1.399-0.576 2.646-1.603 3.824-3.188 1.476-1.975 2.741-4.945 3.722-8.754 1.076-4.351 1.638-9.957 1.638-16.736 0.007-6.438-0.534-11.791-1.613-15.836zM362.341 458.491c10.856-4.436 22.918-6.702 35.76-6.702 11.816 0 23.316 2.264 34.147 6.702 10.856 4.445 20.543 10.839 28.795 18.999 8.22 8.101 14.87 17.896 19.77 29.083 4.97 11.306 7.507 23.934 7.507 37.489 0 13.851-2.249 26.683-6.632 38.091-4.436 11.517-10.765 21.551-18.761 29.821-8.031 8.287-17.727 14.8-28.812 19.365-22.078 9.067-50.016 9.067-71.823-0.017-10.924-4.572-20.518-11.068-28.531-19.347-7.999-8.277-14.335-18.304-18.771-29.814-4.386-11.391-6.6-24.208-6.6-38.101 0-13.453 2.239-25.945 6.642-37.134 4.436-11.299 10.772-21.161 18.771-29.312 8.024-8.235 17.625-14.656 28.541-19.126zM384.782 561.164c1.163 4.836 2.552 7.489 3.529 8.888 1.367 1.943 2.587 2.594 3.392 2.917 1.866 0.745 3.961 1.121 6.396 1.121 2.45 0 4.614-0.373 6.607-1.153 1.392-0.552 2.646-1.568 3.852-3.163 1.476-1.943 2.748-4.97 3.715-8.744 1.068-4.326 1.628-10.041 1.628-16.964 0-6.428-0.542-11.763-1.613-15.826-0.932-3.536-2.154-6.259-3.606-8.101-1.195-1.536-2.495-2.537-3.961-3.114-4.013-1.543-9.211-1.543-13.063-0.017-1.332 0.527-2.45 1.441-3.504 2.875-1.349 1.814-2.51 4.657-3.402 8.22-1.026 4.112-1.543 9.492-1.543 15.97 0.007 6.955 0.527 12.715 1.568 17.091zM628.429 634.955c-7.887 0-14.445-1.67-19.414-4.945-4.045-2.654-7.574-5.666-10.874-9.423l-264.359-339.735h73.468c6.573 0 12.409 1.382 17.32 4.122 4.562 2.552 8.449 5.792 11.602 9.823l264.349 340.16h-72.094z" />
<glyph unicode="&#xe903;" glyph-name="economical" d="M994.48 411.071c0 50.323-60.394 75.917-115.734 90.879l-65.427 348.804c-2.061 60.313-51.776 108.732-112.558 108.732h-361.131c-60.813 0-110.554-48.429-112.608-108.732l-65.377-348.746c-55.453-14.938-116.020-40.531-116.020-90.937 0-33.719 22.179-81.655 211.605-110.201l-78.757-348.417 74.734-16.867 14.332 63.391 256.667 89.903 247.671-86.743 15.046-66.543 74.727 16.867-78.764 348.417c189.6 28.457 211.596 76.492 211.596 110.194zM706.416 291.758l12.115-53.649-194.327-68.037-202.001 70.73 11.523 50.956c58.293-5.524 121.799-8.585 186.308-8.585 64.343 0 127.75 3.020 186.382 8.585zM287.46 87.156l17.737 78.437 103.126-36.1-120.863-42.337zM640.087 129.486l95.436 33.406 16.407-72.618-111.843 39.209zM771.065 376.532l-40.426-5.384c-127.077-14.799-292.281-14.815-418.358-0.329l-40.483 5.254c-76.359 11.271-117.951 25.264-137.797 34.967 11.935 5.935 33.029 14.053 69.318 22.4l24.444 5.622 75.121 400.719 0.649 7.058c0 19.88 16.186 36.059 36.083 36.059h361.147c19.873 0 36.025-16.169 36.025-36.059l75.794-407.804 24.434-5.639c36.1-8.332 57.136-16.431 69.063-22.352-19.634-9.595-60.486-23.41-135.015-34.515z" />
<glyph unicode="&#xe904;" glyph-name="home-services" d="M1004.688 474.952l-484.502 484.536-484.56-484.536c-15.143-15.143-15.143-39.687 0-54.83 7.573-7.58 17.495-11.369 27.42-11.369s19.854 3.789 27.427 11.369l429.716 429.682 429.658-429.682c15.143-15.16 39.687-15.16 54.847 0 15.16 15.143 15.16 39.687 0 54.83zM866.689 428.194c-21.427 0-38.781-17.354-38.781-38.781v-376.274h-172.184v282.749h-278.093v-282.749h-172.208v376.274c0 21.427-17.361 38.781-38.781 38.781s-38.788-17.354-38.788-38.781v-453.827h327.337v282.732h122.974v-282.732h327.32v453.827c0 21.427-17.378 38.781-38.796 38.781z" />
<glyph unicode="&#xe905;" glyph-name="kids-services" d="M1021.762 437.383c-8.23 46.687-42.846 86.185-88.238 100.625-12.47 3.965-25.257 6.069-38.034 6.242-26.969 79.443-78.279 148.876-146.572 198.257 0 0.565 0.024 1.14 0.024 1.722v72.726c0 21.74-9.893 41.758-27.159 54.91-17.093 13.069-39.281 17.465-60.156 11.771l-124.435-33.935h-50.721l-124.426 33.935c-20.783 5.67-43.005 1.313-60.156-11.771-17.234-13.186-27.118-33.211-27.118-54.91v-72.733c0-0.565 0-1.14 0.017-1.712-68.245-49.34-119.521-118.714-146.531-198.257-12.77-0.175-25.571-2.277-38.109-6.252-45.375-14.448-80.001-53.945-88.231-100.633-6.742-38.416 3.607-77.439 28.416-106.953 24.399-29.088 59.981-45.974 97.915-46.529 25.705-75.527 74.197-143.148 138.011-191.906 71.063-54.303 155.969-82.975 245.612-82.975 89.609 0 174.533 28.674 245.561 82.975 63.456 48.468 111.807 115.648 137.953 191.906 37.934 0.516 73.566 17.4 97.956 46.505 24.857 29.529 35.216 68.578 28.423 106.994zM511.876 86.143c-72.575 0-141.312 23.211-198.823 67.122-55.667 42.54-96.967 102.83-116.289 169.718-6.71 23.386-27.442 39.105-51.617 39.105-2.552 0-5.122-0.175-7.665-0.548-18.315-2.518-36.356 4.54-48.068 18.464-10.407 12.387-14.382 27.627-11.489 44.052 3.259 18.739 17.251 34.6 35.64 40.452 7.964 2.543 16.046 3.242 23.886 2.112 27.052-3.907 51.926 12.677 59.326 38.516 20.21 70.081 63.522 131.525 122.623 174.44 13.327-5.088 28.182-5.928 42.674-2.029l124.411 33.959h50.752l124.509-33.986c14.324-3.865 29.271-3.059 42.581 2.063 59.109-42.929 102.396-104.374 122.597-174.433 7.433-25.854 32.115-42.44 59.382-38.533 7.872 1.13 15.863 0.431 23.876-2.119 18.357-5.845 32.347-21.716 35.647-40.511 2.911-16.36-1.106-31.575-11.53-43.986-11.73-14.007-30.328-20.883-47.993-18.488-27.2 3.89-51.926-12.677-59.382-38.492-19.321-66.973-60.614-127.261-116.254-169.759-57.521-43.911-126.265-67.122-198.791-67.122zM351.883 754.73v51.727l90.883-24.775v-2.177l-90.883-24.775zM580.968 779.505v2.177l90.856 24.775v-51.727l-90.856 24.775zM412.997 419.901v15.239c0 25.488-20.734 46.222-46.198 46.222-25.505 0-46.222-20.734-46.222-46.222v-15.239c0-25.488 20.717-46.232 46.222-46.232 25.471 0.007 46.198 20.741 46.198 46.232zM656.919 481.362c-25.471 0-46.198-20.734-46.198-46.222v-15.239c0-25.488 20.717-46.232 46.198-46.232 25.505 0 46.239 20.734 46.239 46.232v15.239c0 25.498-20.734 46.222-46.239 46.222zM572.855 317.622c-27.144-27.193-74.796-27.234-102.048 0.041-15.821 15.753-43.312 15.804-59.233-0.041-16.311-16.345-16.311-42.888 0.017-59.233 29.422-29.397 68.586-45.616 110.268-45.616 41.709 0 80.873 16.218 110.226 45.574 7.906 7.94 12.295 18.447 12.295 29.612 0 11.24-4.357 21.764-12.295 29.67-15.829 15.804-43.363 15.829-59.233-0.007z" />
<glyph unicode="&#xe906;" glyph-name="luxury" d="M894.85 560.783c-13.78 0-27.237-1.53-40.215-4.239v66.625c0 182.491-150.062 330.955-334.497 330.955-184.426 0-334.48-148.464-334.48-330.955v-66.625c-13.011 2.706-26.445 4.239-40.232 4.239-75.682 0-137.259-61.032-137.259-136.049 0-53.335 30.996-101.14 79.249-123.312l19.459-76.657c2.367-81.441 61.131-149.815 140.792-166.136l-23.622-99.922 75.168-17.761 26.037 110.276c42.094-1.2 103.763-1.2 194.947-1.2 79.348 0 136.364 0 177.581 0.786l25.947-109.864 75.168 17.761-22.875 96.86c1.879 0.306 3.676 0.638 5.339 0.967 85.33 11.818 149.592 82.956 152.058 168.228l19.442 76.657c48.352 22.247 79.256 70.020 79.256 123.312-0.007 75.027-61.577 136.049-137.259 136.049zM262.901 623.183c0 139.89 115.41 253.702 257.227 253.702 141.835 0 257.227-113.812 257.227-253.702v-101.14c-42.244-31.369-71.427-79.174-77.6-133.782-41.995 9.187-100.502 16.702-179.627 16.702-79.115 0-137.613-7.507-179.61-16.702-6.2 54.608-35.358 102.415-77.617 133.782v101.14zM918.057 370.507c-23.729-9.799-39.669-31.757-41.822-56.934l-19.997-78.875v-4.825c0-49.684-37.858-91.448-88.053-97.134l-24.216-2.757c-35.921-1.465-114.539-2.716-223.782-2.716-109.275 0-187.886 1.249-223.814 2.716l-24.216 2.757c-50.239 5.693-88.128 47.45-88.128 97.134v4.825l-20.004 78.875c-2.136 25.135-18.018 47.094-41.854 56.992-22.347 9.137-36.781 30.409-36.781 54.179 0 32.426 26.925 58.813 60.013 58.813 65.675 0 119.107-52.598 119.107-117.238v-82.939l51.398 18.026c27.95 9.832 91.654 26.304 204.2 26.304 106.916 0 170.049-14.311 204.2-26.304l51.405-18.026v82.939c0 64.64 53.418 117.238 119.117 117.238 33.098 0 60.020-26.386 60.020-58.813 0.024-23.78-14.384-45.050-36.789-54.237z" />
<glyph unicode="&#xe907;" glyph-name="mens" d="M1009.9 536.506c-14.143 6.050-30.561 2.152-40.473-9.612-47.562-56.418-61.238-56.418-97.668-56.418-18.506 0-40.901 6.565-67.026 55.276-32.393 60.359-74.945 116.225-166.032 116.225-48.15 0-91.226-22.148-119.554-56.773-28.364 34.619-71.425 56.773-119.569 56.773-91.103 0-133.631-55.872-166.026-116.246-26.125-48.689-48.542-55.261-67.035-55.261-36.451 0-50.099 0-97.668 56.418-9.933 11.765-26.358 15.655-40.479 9.612-14.107-6.029-22.628-20.629-20.97-35.912 0.567-5.149 14.607-126.993 90.091-182.582 72.799-53.538 145.818-64.809 194.273-64.809 67.107 0 130.702 21.501 170.067 57.56 20.018 18.295 40.647 38.626 57.312 63.166 16.674-24.534 37.279-44.872 57.304-63.194 39.352-36.023 102.925-57.523 170.054-57.523h0.021c48.455 0 121.474 11.271 194.26 64.809 75.511 55.589 89.524 177.433 90.127 182.582 1.606 15.285-6.9 29.885-21.015 35.912zM414.637 362.33c-20.708-19-63.848-39.25-122.877-39.25-37.985 0-95.342 8.922-152.85 51.241-11.271 8.334-20.744 19.873-28.656 32.874 16.767-5.032 34.691-6.559 56.264-6.559 53.299 0 95.355 30.118 128.593 92.076 32.263 60.105 57.647 79.38 104.466 79.38 46.646 0 84.622-37.97 84.622-84.622-0.006-51.727-24.453-83.881-69.563-125.138zM899.325 374.312c-57.502-42.32-114.821-51.241-152.805-51.241h-0.021c-59.036 0.036-102.169 20.25-122.856 39.25-45.11 41.257-69.572 73.417-69.572 125.138 0 46.653 37.963 84.622 84.637 84.622 46.806 0 72.16-19.283 104.453-79.38 33.236-61.958 75.3-92.076 128.608-92.076 21.56 0 39.491 1.527 56.252 6.559-7.903-12.995-17.394-24.541-28.692-32.874z" />
<glyph unicode="&#xe908;" glyph-name="premium" d="M889.246 580.818c-45.33 224.183-227.084 362.929-369.495 362.929-142.434 0-324.208-138.753-369.489-362.936-17.502-86.597-0.788-167.227 48.341-233.124 58.605-78.675 162.733-131.935 278.522-142.458h7.418v-116.168h-2.303c0 5.739 1.806 8.924 1.82 8.963-4.43-7.598-40.734-39.921-137.192-59.425-40.117-8.12-59.108-25.786-56.436-52.575 6-59.739 163.137-66.187 230.412-66.187 66.621 0 222.252 6.441 228.227 66.053 2.688 26.795-16.398 44.51-56.697 52.667-89.837 18.162-126.226 46.078-134.268 55.852v110.634h2.31l1.656 0.166c115.884 10.46 220.125 63.72 278.799 142.458 49.152 65.928 65.873 146.541 48.371 233.147zM579.189-4.073c-37.823-3.123-78.982-3.162-119.006 0.261 23.846 10.169 43.925 21.654 59.425 33.953 15.395-12.423 35.491-23.989 59.582-34.214zM781.875 391.626c-46.11-61.868-130.041-104.027-224.775-112.983l-74.954 0.039c-94.631 8.98-178.5 51.154-224.562 112.944-36.791 49.39-48.639 108.142-35.223 174.623 29.043 143.744 158.313 303.932 297.38 303.932 139.021 0 268.323-160.181 297.396-303.939 13.425-66.48 1.584-125.217-35.262-174.613zM519.742 400.952c-96.514 0-191.524 52.346-207.321 142.947-19.827-124.090 92.643-197.972 207.321-197.972 114.646 0 227.179 73.922 207.337 197.995-15.797-90.594-110.808-142.97-207.337-142.97z" />
<glyph unicode="&#xe909;" glyph-name="tv" d="M981.776 770.742h-483.743l106.11 113.859c16.118 17.379 15.093 44.316-2.062 60.4-17.144 16.092-44.316 15.040-60.389-2.078l-135.802-145.872-135.847 145.872c-16.092 17.334-43.029 18.18-60.4 2.078-17.128-16.084-18.143-43.029-2.062-60.4l106.155-113.859h-270.632c-23.599 0-42.607-19-42.607-42.633v-681.817c0-23.617 19.016-42.625 42.607-42.625h87.993v-28.395c0-23.607 19.027-42.633 42.607-42.633 23.617 0 42.652 19.027 42.652 42.633v28.395h591.986v-28.395c0-23.607 18.982-42.633 42.589-42.633 23.599 0 42.625 19.027 42.625 42.633v28.395h87.967c23.617 0 42.633 19.008 42.633 42.625v681.817c0.216 23.633-18.818 42.633-42.38 42.633zM85.759 88.924v596.577h853.168v-596.577h-853.168zM801.424 453.147c23.607 0 42.625 18.982 42.625 42.625v61.615c0 23.617-19.016 42.633-42.625 42.633s-42.625-19.016-42.625-42.633v-61.425c0-23.599 19.016-42.813 42.625-42.813zM801.424 269.042c-24.688 0-44.703-20.015-44.703-44.703 0-24.706 20.015-44.73 44.703-44.73 24.714 0 44.695 20.026 44.695 44.73 0 24.696-19.981 44.703-44.695 44.703z" />
<glyph unicode="&#xe90a;" glyph-name="unisex" d="M156.572 672.567c64.672 0 117.245 52.607 117.245 117.269 0 64.648-52.573 117.269-117.245 117.269-64.631 0-117.252-52.624-117.252-117.269 0-64.662 52.624-117.269 117.252-117.269zM156.572 839.883c27.592 0 50.037-22.438 50.037-50.037s-22.455-50.037-50.037-50.037c-27.599 0-50.054 22.447-50.054 50.037 0 27.599 22.455 50.037 50.054 50.037zM199.356 631.842h-84.892c-63.187 0-114.592-51.422-114.592-114.619v-168.616c0-35.27 16.135-67.99 43.134-89.536l0.017-237.458c0.042-18.595 15.050-33.645 33.628-33.645 18.544 0 33.594 15.075 33.594 33.645l-0.017 255.418c0 12.383-6.862 23.83-17.794 29.627-15.634 8.355-25.315 24.407-25.315 41.949v168.616c0 26.141 21.228 47.404 47.345 47.404h84.892c26.099 0 47.352-21.263 47.352-47.404v-168.616c0-17.527-9.723-33.594-25.35-41.949-10.932-5.812-17.786-17.234-17.786-29.627v-255.418c0-18.578 15.026-33.645 33.594-33.645 18.585 0 33.636 15.075 33.636 33.645v237.458c27.008 21.546 43.126 54.266 43.126 89.536v168.616c0 63.197-51.405 114.619-114.577 114.619zM822.927 672.525c64.606 0 117.269 52.607 117.269 117.279s-52.666 117.294-117.269 117.294c-64.689 0-117.262-52.624-117.262-117.294s52.573-117.279 117.262-117.279zM822.927 839.883c27.592 0 50.030-22.455 50.030-50.071s-22.438-50.064-50.030-50.064c-27.634 0-50.096 22.447-50.096 50.064s22.465 50.071 50.096 50.071zM1020.251 292.024l-83.458 166.974v58.951c0 62.803-51.073 113.884-113.866 113.884s-113.918-51.073-113.918-113.884v-58.951l-83.475-166.974c-5.186-10.424-4.637-22.789 1.493-32.72 6.105-9.906 16.944-15.935 28.584-15.935h66.482v-221.758c0-18.578 15.033-33.645 33.611-33.645 18.568 0 33.577 15.075 33.577 33.645v255.376c0 18.578-15.016 33.577-33.577 33.577h-45.718l62.737 125.458c2.294 4.661 3.518 9.798 3.518 15.026v66.89c0 25.733 20.928 46.654 46.695 46.654 25.682 0 46.644-20.921 46.644-46.654v-66.89c0-5.228 1.185-10.372 3.545-15.026l62.703-125.458h-45.027c-18.578 0-33.604-15.009-33.604-33.577v-255.376c0-18.578 15.033-33.645 33.604-33.645s33.604 15.075 33.604 33.645v221.758h65.813c11.64 0 22.455 6.029 28.601 15.935 6.088 9.93 6.671 22.296 1.434 32.72zM476.896 907.106c-18.595 0-33.621-15.058-33.621-33.594v-851.898c0-18.578 15.026-33.645 33.621-33.645 18.544 0 33.587 15.075 33.587 33.645v851.898c0 18.536-15.043 33.594-33.587 33.594z" />
<glyph unicode="&#xe90b;" glyph-name="walk-in" d="M623.544 56.154l-102.080 188.887-199.589 108.778c-22.742 12.386-39.266 32.884-46.592 57.701-7.319 24.833-4.509 51.032 7.87 73.765l67.466 123.786c25.603 46.93 84.634 64.257 131.489 38.743l151.088-79.476 135.823 84.512 27.921-44.892-161.541-100.516-178.262 93.75c-21.622 11.804-48.495 3.927-60.102-17.409l-67.459-123.786c-5.627-10.355-6.903-22.242-3.58-33.526 3.315-11.291 10.838-20.611 21.162-26.231l213.365-116.286 109.504-202.694-46.485-25.111zM583.055 669.711c55.526 0 100.704 45.187 100.704 100.704 0 55.511-45.18 100.728-100.704 100.728-55.511 0-100.697-45.218-100.697-100.728 0-55.517 45.193-100.704 100.697-100.704v0zM583.055 813.405c23.7 0 42.981-19.265 42.981-42.989 0-23.678-19.29-42.958-42.981-42.958s-42.974 19.29-42.974 42.958c0 23.722 19.281 42.989 42.974 42.989v0zM275.517 143.363l-32.816 41.447 35.692 28.278 46.479 83.251 46.145-25.724-51.552-92.458zM465.205 551.676l45.983-26.085-97.255-171.449-45.983 26.085 97.255 171.449zM240.11-64.384v1023.921l181.26-117.465v-122.184h-52.867v93.894l-75.524 46.977v-826.356l75.524 46.961v72.088h52.867v-100.366z" />
<glyph unicode="&#xe90c;" glyph-name="womens" d="M1027.386 438.452c-6.919 11.352-172.642 278.635-400.221 319.398-20.225 3.608-40.964-2.884-55.447-17.356l-43.819-43.819c-4.854-4.832-12.706-4.832-17.524 0l-43.812 43.819c-14.502 14.48-35.221 20.964-55.474 17.356-227.609-40.763-393.296-308.048-400.235-319.398-5.586-9.134-4.752-20.805 2.065-29.071 2.311-2.789 57.416-69.051 146.902-136.030 119.665-89.594 243.893-136.964 359.305-136.964s239.648 47.369 359.305 136.964c89.465 66.979 144.6 133.248 146.909 136.030 6.802 8.266 7.636 19.935 2.044 29.071zM419.92 708.432c4.094 0.711 8.243-0.558 11.119-3.455l43.812-43.812c11.815-11.8 27.549-18.32 44.284-18.32 16.719 0 32.431 6.52 44.248 18.32l43.819 43.812c2.884 2.897 7.048 4.166 11.097 3.455 143.787-25.752 265.039-159.449 325.346-238.135-61.907 14.033-160.861 34.199-277.614 49.732-44.884 5.976-90.804-9.569-122.853-41.595-6.403-6.418-14.945-9.975-24.043-9.975-9.032 0-17.509 3.47-23.92 9.816-0.057 0.057-0.129 0.129-0.195 0.195-31.983 32.013-77.903 47.535-122.802 41.559-116.817-15.531-215.785-35.714-277.695-49.753 60.22 78.677 181.377 212.375 325.397 238.156zM519.135 186.59c-203.536 0-380.082 162.382-443.004 227.87 55.063 13.213 166.447 37.705 302.687 55.822 29.44 3.911 59.517-6.237 80.517-27.123 0.066-0.081 0.159-0.159 0.21-0.225 15.924-15.894 37.061-24.674 59.59-24.674 22.486 0 43.638 8.78 59.604 24.701 20.979 21.051 51.173 31.251 80.677 27.318 136.276-18.118 247.681-42.624 302.723-55.852-62.807-65.458-239.097-227.84-443.004-227.84zM383.012 637.229c-2.18 8.156-10.584 13.003-18.755 10.824-1.29-0.363-32.055-8.816-73.253-38.98-6.817-4.992-8.309-14.582-3.302-21.399 3.007-4.107 7.657-6.273 12.358-6.273 3.158 0 6.31 0.964 9.041 2.963 35.93 26.31 62.552 33.952 63.153 34.135 8.12 2.209 12.952 10.575 10.758 18.733zM282.059 571.46c0-8.457-6.857-15.314-15.314-15.314s-15.314 6.857-15.314 15.314c0 8.457 6.857 15.314 15.314 15.314s15.314-6.857 15.314-15.314z" />
<glyph unicode="&#xe90d;" glyph-name="tv2" d="M981.188 671.892c-88.808 12.768-183.382 22.016-282.076 27.22l164.888 164.888-64 64-224.558-224.556c-21.006 0.368-42.156 0.556-63.442 0.556v0l-256 256-64-64 194.196-194.196c-120.922-4.242-236.338-14.524-343.386-29.912-27.532-107.726-42.81-226.752-42.81-351.892s15.278-244.166 42.804-351.89c143.642-20.652 302.34-32.11 469.196-32.11s325.55 11.458 469.188 32.11c27.534 107.724 42.812 226.75 42.812 351.89s-15.278 244.166-42.812 351.892zM863.892 85.406c-107.73-13.766-226.75-21.406-351.892-21.406s-244.166 7.64-351.892 21.406c-20.648 71.816-32.108 151.166-32.108 234.594 0 83.43 11.458 162.78 32.108 234.596 107.726 13.766 226.75 21.404 351.892 21.404 125.136 0 244.162-7.638 351.886-21.404 20.656-71.816 32.114-151.166 32.114-234.596 0-83.428-11.458-162.778-32.108-234.594z" />
<glyph unicode="&#xe90e;" glyph-name="office" d="M0-64h512v1024h-512v-1024zM320 832h128v-128h-128v128zM320 576h128v-128h-128v128zM320 320h128v-128h-128v128zM64 832h128v-128h-128v128zM64 576h128v-128h-128v128zM64 320h128v-128h-128v128zM576 640h448v-64h-448zM576-64h128v256h192v-256h128v576h-448z" />
<glyph unicode="&#xe90f;" glyph-name="clock" d="M658.744 210.744l-210.744 210.746v282.51h128v-229.49l173.256-173.254zM512 960c-282.77 0-512-229.23-512-512s229.23-512 512-512 512 229.23 512 512-229.23 512-512 512zM512 64c-212.078 0-384 171.922-384 384s171.922 384 384 384c212.078 0 384-171.922 384-384s-171.922-384-384-384z" />
<glyph unicode="&#xe910;" glyph-name="calendar" d="M320 576h128v-128h-128zM512 576h128v-128h-128zM704 576h128v-128h-128zM128 192h128v-128h-128zM320 192h128v-128h-128zM512 192h128v-128h-128zM320 384h128v-128h-128zM512 384h128v-128h-128zM704 384h128v-128h-128zM128 384h128v-128h-128zM832 960v-64h-128v64h-448v-64h-128v64h-128v-1024h960v1024h-128zM896 0h-832v704h832v-704z" />
<glyph unicode="&#xe911;" glyph-name="spoon-knife" d="M224 960c-106.040 0-192-100.288-192-224 0-105.924 63.022-194.666 147.706-217.998l-31.788-518.124c-2.154-35.132 24.882-63.878 60.082-63.878h32c35.2 0 62.236 28.746 60.082 63.878l-31.788 518.124c84.684 23.332 147.706 112.074 147.706 217.998 0 123.712-85.96 224-192 224zM869.334 960l-53.334-320h-40l-26.666 320h-26.668l-26.666-320h-40l-53.334 320h-26.666v-416c0-17.672 14.326-32 32-32h83.338l-31.42-512.122c-2.154-35.132 24.882-63.878 60.082-63.878h32c35.2 0 62.236 28.746 60.082 63.878l-31.42 512.122h83.338c17.674 0 32 14.328 32 32v416h-26.666z" />
<glyph unicode="&#xe912;" glyph-name="cloud" d="M1024 302.458c0 82.090-56.678 150.9-132.996 169.48-3.242 128.7-108.458 232.062-237.862 232.062-75.792 0-143.266-35.494-186.854-90.732-24.442 31.598-62.69 51.96-105.708 51.96-73.81 0-133.642-59.874-133.642-133.722 0-6.436 0.48-12.76 1.364-18.954-11.222 2.024-22.766 3.138-34.57 3.138-106.998 0.002-193.732-86.786-193.732-193.842 0-107.062 86.734-193.848 193.73-193.848l656.262 0.012c96.138 0.184 174.008 78.212 174.008 174.446z" />
<glyph unicode="&#xe913;" glyph-name="sun" d="M512 128c35.346 0 64-28.654 64-64v-64c0-35.346-28.654-64-64-64s-64 28.654-64 64v64c0 35.346 28.654 64 64 64zM512 768c-35.346 0-64 28.654-64 64v64c0 35.346 28.654 64 64 64s64-28.654 64-64v-64c0-35.346-28.654-64-64-64zM960 512c35.346 0 64-28.654 64-64s-28.654-64-64-64h-64c-35.348 0-64 28.654-64 64s28.652 64 64 64h64zM192 448c0-35.346-28.654-64-64-64h-64c-35.346 0-64 28.654-64 64s28.654 64 64 64h64c35.346 0 64-28.654 64-64zM828.784 221.726l45.256-45.258c24.992-24.99 24.992-65.516 0-90.508-24.994-24.992-65.518-24.992-90.51 0l-45.256 45.256c-24.992 24.99-24.992 65.516 0 90.51 24.994 24.992 65.518 24.992 90.51 0zM195.216 674.274l-45.256 45.256c-24.994 24.994-24.994 65.516 0 90.51s65.516 24.994 90.51 0l45.256-45.256c24.994-24.994 24.994-65.516 0-90.51s-65.516-24.994-90.51 0zM828.784 674.274c-24.992-24.992-65.516-24.992-90.51 0-24.992 24.994-24.992 65.516 0 90.51l45.256 45.254c24.992 24.994 65.516 24.994 90.51 0 24.992-24.994 24.992-65.516 0-90.51l-45.256-45.254zM195.216 221.726c24.992 24.992 65.518 24.992 90.508 0 24.994-24.994 24.994-65.52 0-90.51l-45.254-45.256c-24.994-24.992-65.516-24.992-90.51 0s-24.994 65.518 0 90.508l45.256 45.258zM512 704c-141.384 0-256-114.616-256-256 0-141.382 114.616-256 256-256 141.382 0 256 114.618 256 256 0 141.384-114.616 256-256 256zM512 288c-88.366 0-160 71.634-160 160s71.634 160 160 160 160-71.634 160-160-71.634-160-160-160z" />
<glyph unicode="&#xe914;" glyph-name="nail-polish-1" horiz-adv-x="1609" d="M1119.506 395.985l42.614-51.639c-22.561-116.814-147.396-135.364-147.396-135.364-65.175-18.048-162.938-2.005-162.938-2.005 19.553 0 38.102 17.046 38.102 17.046-15.040 0-27.073 6.016-27.073 6.016 19.553 0 34.593 15.040 34.593 15.040-15.040 0-35.596 5.515-35.596 5.515 50.135 0 114.307 62.668 114.307 62.668 86.733 69.186 143.385 82.722 143.385 82.722zM805.664 265.134c7.019-7.019 13.035-11.531 13.035-11.531-5.515-12.032-58.658-1.504-58.658-1.504 0-12.032 70.188-17.046 70.188-17.046-11.531-20.054-64.172-12.032-64.172-12.032 20.054-20.054 71.191-11.030 71.191-11.030-9.024-12.534-18.048-14.038-18.048-14.038 13.035-7.52 62.668 3.008 62.668 3.008 0-6.016-16.043-13.035-16.043-13.035 3.509-3.509 47.628-3.008 47.628-3.008 18.55-18.55 180.485-238.641 180.485-238.641-174.469-32.086-280.754 80.215-280.754 80.215-54.647 35.094-124.334 138.372-124.334 138.372-104.28 139.876-75.202 317.854-75.202 317.854 124.334-89.741 232.123-214.075 232.123-214.075-10.027-10.027-38.102-4.011-40.108-3.509zM1506.546 904.852c98.765-144.388 97.261-234.129 97.261-234.129l-133.859-135.364-162.436 170.458 199.035 199.035zM1392.74 582.988l-211.067-217.083-45.623 48.631 214.075 214.075zM1121.293 401.625l-2.977-0.783c0 0-14.74-3.538-39.951-15.667s-61.159-32.956-104.813-67.525l-0.313-0.156-0.156-0.156c0 0-15.809-15.451-37.758-30.864s-50.030-30.394-73.009-30.394h-37.131l35.878-9.87c0 0 11.253-2.441 23.657-4.073-5.605-3.314-13.166-6.58-21.464-6.58h-21.151l18.957-9.557c0 0 7.209-2.613 16.45-4.543-6.803-4.395-15.735-8.93-25.224-8.93l-0.783-10.027c0 0 0.774 0.002 0.783 0 1.301-0.226 96.533-16.679 163.721 2.037 0.201 0.056 0.426 0.1 0.627 0.156 1.944 0.292 127.356 19.487 150.874 139.124l0.47 2.35-1.567 1.88-43.084 51.231-2.037 2.35zM1117.689 390.188l39.324-46.531c-23.586-111.991-142.57-129.253-142.57-129.253h-0.313l-0.313-0.156c-49.746-14.050-107.689-8.013-135.99-4.387 9.435 5.123 15.98 10.967 15.98 10.967l9.4 8.774h-12.847c-2.506 0-4.142 0.64-6.424 0.94 10.524 4.869 17.547 11.437 17.547 11.437l8.46 8.617h-12.064c-2.444 0-5.037 0.683-7.677 0.94 18.136 6.049 35.95 16.279 50.918 26.791 22.242 15.619 37.939 30.904 38.541 31.491 0.169 0.134 0.301 0.179 0.47 0.313 42.85 33.873 78.168 54.195 102.619 65.958 20.794 10.004 31.517 13.167 34.938 14.1zM1350.314 635.786l-3.76-3.603-217.459-217.459 3.29-3.603 45.591-48.568 3.603-3.917 3.76 3.76 214.326 220.592-3.29 3.447-42.614 45.591-3.447 3.76zM1349.844 621.372l36.034-38.384-204.142-209.782-38.698 41.204 206.805 206.962zM1507.329 913.155l-4.387-4.23-202.419-203.045 3.29-3.603 166.071-173.591 3.603 3.603 135.364 136.774v2.037c0 0 0.214 23.398-11.907 64.392s-36.663 100.048-86.326 172.651l-3.29 5.013zM1505.763 897.332c46.634-69.288 70.106-125.699 81.625-164.661 11.116-37.598 11.286-57.148 11.28-59.535l-128.627-130.037-155.574 162.781 191.295 191.452zM805.664 265.134v0zM610.076 491.554l-1.41-7.99c0 0-29.559-179.669 75.045-321.018 0.045-0.059 0.113-0.098 0.156-0.156 0.109-0.161 17.359-25.96 41.674-56.245 24.118-30.038 54.907-64.172 83.035-82.565 0.32-0.209 0.621-0.578 0.94-0.783 2.486-2.59 109.542-113.149 284.357-80.999l7.834 1.567-4.7 6.424c0 0-40.629 54.976-83.506 112.333-21.438 28.679-43.472 57.887-61.258 81.155s-30.844 40.096-36.191 45.591l-1.41 1.566h-2.193c0 0-11.041-0.059-22.404 0.313-3.881 0.127-7.291 0.401-10.81 0.627 0.881 0.689 1.862 1.236 2.663 2.037 1.947 1.947 3.917 4.258 3.917 7.99v6.267l-5.953-1.253c0 0-12.234-2.57-26.007-4.23-6.886-0.83-14.237-1.477-20.367-1.41-0.376 0.004-0.416 0.145-0.783 0.156 2.493 2.228 5.113 5.070 7.677 8.774l6.737 9.714-11.75-2.037c0 0-12.336-2.026-27.104-1.723-4.37 0.090-8.72 1.090-13.16 1.723 7.043 0.337 14.368 0.879 20.994 2.977 7.222 2.286 13.902 6.22 17.547 12.847l3.76 6.737-7.834 0.627c0 0-15.434 1.376-30.394 3.447 2.534 0.050 5.359-0.274 7.677 0 3.169 0.375 5.968 0.928 8.617 2.037s5.31 2.971 6.737 5.953l1.88 3.917-3.447 2.193c0.633-0.040 1.077-0.128 1.723-0.156 9.194-0.4 19.925 0.184 26.947 7.207l3.29 3.29-2.977 3.447c0 0-107.969 124.73-232.969 214.952l-6.58 4.7zM617.753 473.381c113.44-83.497 208.485-190.317 219.809-203.202-3.987-1.46-9.050-2.44-14.727-2.193-4.051 0.176-8.079 0.734-11.124 1.253s-5.524 1.11-5.483 1.097l-18.644 6.267 13.474-14.414c4.45-4.768 5.715-5.35 8.304-7.364-1.165-0.306-2.166-0.595-3.76-0.783-5.178-0.613-12.147-0.519-18.957 0-13.621 1.038-26.634 3.447-26.634 3.447l-5.953 1.097v-5.953c0-3.941 2.595-6.575 5.17-8.304s5.708-3.068 9.244-4.23c7.071-2.323 15.999-4.083 24.911-5.483 11.931-1.875 17.268-2.086 23.814-2.663-1.358-0.656-2.582-1.358-4.23-1.88-5.845-1.85-13.001-2.736-20.054-2.977-14.105-0.482-27.104 1.41-27.104 1.41l-15.354 2.35 11.124-10.967c11.813-11.517 30.717-13.933 46.531-14.257 8.205-0.168 9.724 0.407 15.040 0.94-0.481-0.313-1.296-1.33-1.723-1.567-2.723-1.513-3.76-1.567-3.76-1.567l-15.197-1.723 13.16-7.677c4.89-2.821 11.018-3.216 17.86-3.29s14.313 0.548 21.464 1.41c4.655 0.561 4.857 0.773 8.774 1.41-0.111-0.050-0.94-0.47-0.94-0.47l-7.364-3.29 6.11-5.17c2.409-2.065 3.676-1.856 5.483-2.193s3.862-0.564 6.267-0.783c4.809-0.439 10.664-0.75 16.45-0.94 10.376-0.34 18.412-0.31 20.367-0.313 4.242-4.58 17.033-20.686 34.154-43.084 17.746-23.216 39.832-52.493 61.258-81.155 40.281-53.884 73.883-99.566 78.335-105.596-167.113-26.679-268.064 79.902-268.064 79.902l-0.313 0.47-0.627 0.313c-26.257 16.862-57.356 51.123-81.469 81.155s-41.361 55.775-41.361 55.775l-0.157 0.157c-94.525 127.562-77.135 282.69-74.105 305.038zM165.601 962.35l-3.447-4.073c-130.337-152.144-162.154-399.197-162.154-399.197l-0.157-1.88 0.94-1.567c23.547-35.967 79.402-90.282 129.567-136.304s94.472-83.349 94.472-83.349l0.627-0.313c17.805-11.246 46.846-41.311 70.815-68.152s43.241-50.605 43.241-50.605l0.157-0.313 0.157-0.156c19.148-19.407 60.765-51.848 97.919-79.902s69.718-51.388 69.718-51.388v-0.156h0.156c105.898-70.934 177.664-98.991 223.412-109.2 22.874-5.104 39.201-5.705 49.978-5.013s16.607 2.977 16.607 2.977l10.34 4.23-10.184 4.857c-70.035 33.809-143.318 147.799-173.591 208.841-31.74 64.229-54.48 120.881-64.862 169.204s-8.416 87.956 8.617 119.383v0.157c3.188 6.131 5.317 9.543 6.58 11.28 0.222 0.305 0.307 0.269 0.47 0.47h2.037l0.94 3.917c2.283 9.284 0.125 19.8-4.543 31.334s-12.128 24.117-21.307 37.444c-18.357 26.655-43.923 56.17-70.032 83.662-52.089 54.851-105.803 101.763-106.066 101.993-0.014 0.014-0.143 0.143-0.157 0.157-18.194 18.196-206.335 207.902-206.335 207.902l-3.917 3.76zM166.384 947.31c7.122-7.179 184.785-186.195 202.575-203.985h0.157l0.157-0.157c0 0 53.627-46.963 105.439-101.523 25.906-27.28 51.415-56.516 69.248-82.409 8.917-12.946 15.812-25.082 20.054-35.564 4.030-9.958 5.368-18.165 4.23-24.127-0.537-0.579-1.097-1.019-1.723-1.88-1.72-2.364-4.111-6.298-7.364-12.534-0.030-0.058 0.030-0.098 0-0.157-0.020-0.035-0.138 0.035-0.156 0-18.472-34.218-20.213-76.673-9.557-126.277 10.675-49.689 33.87-106.938 65.802-171.554 29.269-59.019 95.415-164.26 166.384-206.179-0.804-0.073-0.343-0.098-1.253-0.156-9.731-0.624-25.099-0.066-47.158 4.857-44.101 9.841-114.865 37.248-219.966 107.633 0 0-0.156 0-0.156 0-0.095 0.068-32.258 23.301-69.248 51.231-36.895 27.858-78.438 60.41-96.509 78.649 0 0-0.156 0.156-0.157 0.156-0.037 0.035-0.12 0.12-0.157 0.156-0.253 0.313-19.24 23.885-43.241 50.761-23.954 26.824-52.119 56.407-72.382 69.405 0 0-0.623 0.467-0.627 0.47-0.546 0.458-44.021 37-93.69 82.566-49.364 45.286-104.129 99.198-126.747 133.013 0.742 5.511 33.125 240.306 156.044 387.603z" />
<glyph unicode="&#xe915;" horiz-adv-x="903" d="M200.618 959.982c-26.563-0.416-56.007-8.093-87.24-27.778-52.446-33.216-109.050-96.138-109.050-96.138-0.622-0.436-3.649-2.747-4.232-7.813-0.644-5.597 1.821-13.864 12.587-26.042 0.616-0.696 1.822-0.748 2.496-0.108 0 0 26.746 29.634 62.392 56.207 17.823 13.286 37.894 25.852 57.835 33.529s39.746 10.478 57.184 4.666c0.139-0.055 0.285-0.091 0.434-0.108 0 0 2.489-0.146 7.596-1.628s12.692-4.268 22.678-9.766c19.972-10.995 49.368-32.629 86.589-74.87 74.623-84.689 163.521-192.276 163.521-192.276-0.001-0.036-0.001-0.072 0-0.108 0 0 11.616-12.935 18.012-33.746s7.548-49.216-13.346-80.73h0.108c0 0-28.354-37.609-91.798-93.425 0 0-3.967-3.472-5.534-9.549s-0.648-14.807 8.138-24.848c0 0 2.652-2.951 7.379-3.689s11.499 0.677 19.748 8.030c0.038 0.035 0.074 0.071 0.108 0.108l32.661 32.986 70.747 62.392c0.122 0.093 0.232 0.203 0.325 0.325 0 0 7.62 11.84 19.423 18.555 5.902 3.357 12.731 5.521 20.291 4.34s15.926-5.622 24.848-15.734c0.149-0.179 0.335-0.328 0.543-0.434 0 0 1.089-0.516 4.123-3.255s7.768-7.626 14.649-16.059c13.752-16.856 35.913-47.945 69.011-104.602 0 0 0-0.108 0-0.108 0.069-0.127 17.603-32.21 41.993-69.011 24.353-36.746 55.391-78.057 83.226-97.223 0.097-0.067 0.228-0.151 0.325-0.217 0.394-0.445 10.389-11.83 26.15-18.772 16.053-7.070 38.077-9.062 60.222 10.2h0.108c0.098 0.080 11.634 9.445 16.276 26.584 4.662 17.212 2.271 42.182-24.74 72.7l-542.756 614.589c0 0-23.758 28.469-63.152 47.092-19.697 9.312-43.316 16.15-69.879 15.734z" />
<glyph unicode="&#xe916;" horiz-adv-x="903" d="M161.88 905.836c-1.228-0.106-2.318-0.624-3.149-1.413l-127.712-112.846c-1.292-0.959-2.12-2.48-2.12-4.194 0-2.877 2.332-5.209 5.209-5.209 1.47 0 2.798 0.609 3.745 1.589l127.824 112.85c1.176 0.963 1.92 2.414 1.92 4.039 0 2.877-2.332 5.209-5.209 5.209-0.179 0-0.356-0.009-0.531-0.027z" />
<glyph unicode="&#xe917;" horiz-adv-x="903" d="M209.515 899.217c-1.228-0.106-2.318-0.624-3.149-1.413l-151.475-133.246c-1.078-0.962-1.754-2.355-1.754-3.906 0-2.886 2.34-5.226 5.226-5.226 1.335 0 2.554 0.501 3.477 1.325l151.363 133.243c1.168 0.963 1.907 2.409 1.907 4.029 0 2.877-2.332 5.209-5.209 5.209-0.136 0-0.271-0.005-0.405-0.016z" />
<glyph unicode="&#xe918;" horiz-adv-x="903" d="M241.742 879.794c-1.228-0.106-2.318-0.624-3.149-1.413l-159.721-141.275c-1.078-0.962-1.754-2.355-1.754-3.906 0-2.886 2.34-5.226 5.226-5.226 1.335 0 2.554 0.501 3.477 1.325l159.718 141.273c1.176 0.963 1.92 2.414 1.92 4.039 0 2.877-2.332 5.209-5.209 5.209-0.179 0-0.356-0.009-0.531-0.027z" />
<glyph unicode="&#xe919;" horiz-adv-x="903" d="M273.535 861.674c-1.016-0.19-1.903-0.651-2.608-1.305l-169.161-148.978c-1.078-0.962-1.754-2.355-1.754-3.906 0-2.886 2.34-5.226 5.226-5.226 1.335 0 2.554 0.501 3.477 1.325l169.050 148.977c1.133 0.962 1.847 2.387 1.847 3.979 0 2.877-2.332 5.209-5.209 5.209-0.307 0-0.609-0.027-0.901-0.078z" />
<glyph unicode="&#xe91a;" horiz-adv-x="903" d="M296.321 836.717c-1.228-0.106-2.318-0.624-3.149-1.413l-169.162-149.305c-1.078-0.962-1.754-2.355-1.754-3.906 0-2.886 2.34-5.226 5.226-5.226 1.335 0 2.554 0.501 3.477 1.325l169.050 149.302c1.168 0.963 1.907 2.409 1.907 4.029 0 2.877-2.332 5.209-5.209 5.209-0.136 0-0.271-0.005-0.405-0.016z" />
<glyph unicode="&#xe91b;" horiz-adv-x="903" d="M324.099 814.147c-1.228-0.106-2.318-0.624-3.149-1.413l-173.61-153.103c-1.292-0.959-2.12-2.48-2.12-4.194 0-2.877 2.332-5.209 5.209-5.209 1.47 0 2.798 0.609 3.745 1.589l173.614 153.106c1.168 0.963 1.907 2.409 1.907 4.029 0 2.877-2.332 5.209-5.209 5.209-0.136 0-0.271-0.005-0.405-0.016z" />
<glyph unicode="&#xe91c;" horiz-adv-x="903" d="M348.731 786.369c-1.228-0.106-2.318-0.624-3.149-1.413l-173.61-153.103c-1.292-0.959-2.12-2.48-2.12-4.194 0-2.877 2.332-5.209 5.209-5.209 1.47 0 2.798 0.609 3.745 1.589l173.614 153.106c1.168 0.963 1.907 2.409 1.907 4.029 0 2.877-2.332 5.209-5.209 5.209-0.136 0-0.271-0.005-0.405-0.016z" />
<glyph unicode="&#xe91d;" horiz-adv-x="903" d="M364.030 754.793c-1.228-0.106-2.318-0.624-3.149-1.413l-166.666-146.809c-1.292-0.959-2.12-2.48-2.12-4.194 0-2.877 2.332-5.209 5.209-5.209 1.47 0 2.798 0.609 3.745 1.589l166.67 146.813c1.168 0.963 1.907 2.409 1.907 4.029 0 2.877-2.332 5.209-5.209 5.209-0.136 0-0.271-0.005-0.405-0.016z" />
<glyph unicode="&#xe91e;" horiz-adv-x="903" d="M394.521 734.285c-1.228-0.106-2.318-0.624-3.149-1.413l-173.61-153.102c-1.078-0.962-1.754-2.355-1.754-3.906 0-2.886 2.34-5.226 5.226-5.226 1.335 0 2.554 0.501 3.477 1.325l173.607 153.1c1.176 0.963 1.92 2.414 1.92 4.039 0 2.877-2.332 5.209-5.209 5.209-0.179 0-0.356-0.009-0.531-0.027z" />
<glyph unicode="&#xe91f;" horiz-adv-x="903" d="M410.038 700.214c-1.057-0.169-1.983-0.633-2.717-1.306l-165.579-146.157c-1.078-0.962-1.754-2.355-1.754-3.906 0-2.886 2.34-5.226 5.226-5.226 1.335 0 2.554 0.501 3.477 1.325l165.578 146.156c1.133 0.962 1.847 2.387 1.847 3.979 0 2.877-2.332 5.209-5.209 5.209-0.307 0-0.609-0.027-0.901-0.078z" />
<glyph unicode="&#xe920;" horiz-adv-x="903" d="M434.452 675.257c-1.228-0.106-2.318-0.624-3.149-1.413l-166.666-147.135c-1.078-0.962-1.754-2.355-1.754-3.906 0-2.886 2.34-5.226 5.226-5.226 1.335 0 2.554 0.501 3.477 1.325l166.663 147.132c1.176 0.963 1.92 2.414 1.92 4.039 0 2.877-2.332 5.209-5.209 5.209-0.179 0-0.356-0.009-0.531-0.027z" />
<glyph unicode="&#xe921;" horiz-adv-x="903" d="M457.564 646.394c-1.016-0.19-1.903-0.651-2.608-1.305l-165.688-146.157c-1.078-0.962-1.754-2.355-1.754-3.906 0-2.886 2.34-5.226 5.226-5.226 1.335 0 2.554 0.501 3.477 1.325l165.578 146.156c1.133 0.962 1.847 2.387 1.847 3.979 0 2.877-2.332 5.209-5.209 5.209-0.307 0-0.609-0.027-0.901-0.078z" />
<glyph unicode="&#xe922;" horiz-adv-x="903" d="M477.313 620.352c-1.016-0.19-1.903-0.651-2.608-1.305l-163.844-144.855c-1.292-0.959-2.12-2.48-2.12-4.194 0-2.877 2.332-5.209 5.209-5.209 1.47 0 2.798 0.609 3.745 1.589l163.957 144.86c1.151 0.962 1.878 2.398 1.878 4.004 0 2.877-2.332 5.209-5.209 5.209-0.357 0-0.706-0.036-1.043-0.104z" />
<glyph unicode="&#xe923;" horiz-adv-x="903" d="M498.363 588.776c-1.216-0.074-2.307-0.555-3.152-1.307l-159.718-141.056c-1.078-0.962-1.754-2.355-1.754-3.906 0-2.886 2.34-5.226 5.226-5.226 1.335 0 2.554 0.501 3.477 1.325l159.718 141.056c1.092 0.96 1.777 2.359 1.777 3.919 0 2.877-2.332 5.209-5.209 5.209-0.129 0-0.257-0.005-0.383-0.014z" />
<glyph unicode="&#xe924;" horiz-adv-x="903" d="M506.501 549.171c-1.016-0.19-1.903-0.651-2.608-1.305l-145.18-127.819c-1.078-0.962-1.754-2.355-1.754-3.906 0-2.886 2.34-5.226 5.226-5.226 1.335 0 2.554 0.501 3.477 1.325l145.178 127.818c1.151 0.962 1.878 2.398 1.878 4.004 0 2.877-2.332 5.209-5.209 5.209-0.357 0-0.706-0.036-1.043-0.104z" />
<glyph unicode="&#xe925;" horiz-adv-x="903" d="M844.503 889.777l1.389-34.028-28.125-71.876-138.543-356.948-22.57-228.821c-5.903 6.25-12.847 11.458-21.181 14.931-6.597 3.125-13.542 4.861-20.834 5.556v0l16.667 201.391-36.111 48.959 225.696 389.24 23.611 31.597zM651.793 458.871c7.639 2.778 11.111 11.806 8.333 19.792-3.125 7.986-11.458 12.5-19.097 9.722s-11.111-11.806-8.333-19.792c2.778-7.986 11.458-12.5 19.097-9.722z" />
<glyph unicode="&#xe926;" horiz-adv-x="903" d="M653.855 72.821c-3.412-4.435-7.177-8.588-10.959-12.37-5.412-5.75-11.859-10.572-18.338-14.323-15.003-8.866-31.371-12.87-47.635-11.176l-0.434-3.472c0 0 0.108 0 0.108 0 0.17-0.035 26.878-5.262 44.38-23.438 0 0 15.352-16.663 28.104-50.782l0.217-0.434c0 0 4.121-5.699 10.417-8.681 3.148-1.491 6.925-2.281 10.959-1.194s8.15 4.024 12.044 9.549l0.543 0.76-0.434 0.977c0 0-7.048 15.101-14.106 31.901-3.529 8.4-7.057 17.247-9.657 24.74s-4.193 13.853-4.123 16.493v0.217c0 0-0.848 6.691-0.977 14.974s0.505 18.218 2.93 24.523l-3.038 1.736zM652.227 65.66c-1.209-6.192-1.832-13.019-1.736-19.206 0.13-8.35 0.955-14.785 0.977-14.974-0.001-0.046 0.001-0.17 0-0.217-0.059-3.962 1.73-9.946 4.34-17.47 2.641-7.612 6.112-16.517 9.657-24.957 6.856-16.32 13.439-30.071 13.889-31.033-3.36-4.503-6.625-6.699-9.549-7.487-3.094-0.834-6.056-0.267-8.681 0.977-5.147 2.438-8.754 7.295-8.898 7.487-0.003 0.003-0.108 0.108-0.108 0.108-12.908 34.294-28.538 51.541-28.538 51.541-11.933 12.392-25.087 17.723-34.831 20.834 12.949 0.787 25.682 4.818 37.544 11.827 6.694 3.875 13.301 8.945 18.989 14.974h0.108c2.32 2.322 4.584 5.008 6.836 7.596z" />
<glyph unicode="&#xe927;" horiz-adv-x="903" d="M659.78 478.663c3.125-7.986-0.694-17.014-8.333-19.792s-15.972 1.389-19.097 9.722c-3.125 8.333 0.694 17.014 8.333 19.792s16.32-1.389 19.097-9.722z" />
<glyph unicode="&#xe928;" horiz-adv-x="903" d="M656.654 198.104l-21.181 14.931c7.986-3.472 15.278-8.681 21.181-14.931z" />
<glyph unicode="&#xe929;" horiz-adv-x="903" d="M635.474 213.035l-20.834 5.556c6.945-0.347 14.236-2.431 20.834-5.556z" />
<glyph unicode="&#xe92a;" horiz-adv-x="903" d="M580.395 451.731l-1.411-1.411-138.348-141.494 1.194-1.194 0.434-0.325 0.217-0.217 0.325-0.217 18.012-7.053 16.493-19.531 1.411 1.302 137.262 127.822-1.085 1.302-34.506 41.016zM556.040 402.262l-42.991-61.951-27.824-16.992-22.018-21.005c54.079 37.257 31.002-8.614 92.833 99.947z" />
<glyph unicode="&#xe92b;" horiz-adv-x="903" d="M411.882 325.428c-36.373-2.508-71.64-28.21-89.193-67.058-24.523-53.26-8.437-114.958 38.954-136.611 47.41-21.662 104.851 6.579 129.016 59.896 23.815 52.545 8.608 113.155-37.435 135.526l0.108 0.108c-0.512 0.341-0.707 0.275-1.194 0.543-0.196 0.091-0.345 0.235-0.543 0.325v-0.108c-1.409 0.715-2.778 1.361-3.581 1.628v0.108c-0.216 0.086-0.435 0.133-0.651 0.217-0.035 0.014-0.075-0.014-0.108 0-11.53 4.482-23.506 6.244-35.374 5.425zM443.458 308.5l-3.798-11.502c1.042-0.347 0.731-0.343 0.217 0l0.76-0.543 0.868-0.325c33.14-15.142 46.653-61.173 27.018-104.493l-0.217-0.434c-19.686-42.896-63.542-62.401-96.572-47.309-33.164 15.153-46.832 61.116-26.91 104.385 18.957 41.953 61.251 62.067 94.076 48.937l4.557 11.285z" />
<glyph unicode="&#xe92c;" horiz-adv-x="903" d="M600.469 231.351c-36.28-2.528-70.787-28.207-88.542-66.732-24.523-53.26-8.437-114.958 38.954-136.611h0.108c7.866-3.54 16.106-6.102 24.957-6.945l2.387 24.197c-5.733 0.546-11.338 2.173-17.361 4.883-33.164 15.153-46.832 61.116-26.91 104.385 16.514 35.832 50.083 55.728 79.211 52.301l2.821 24.197c-5.213 0.613-10.442 0.687-15.625 0.325z" />
<glyph unicode="&#xe92d;" horiz-adv-x="903" d="M852.207 914.083l-14.54-18.989-24.306-31.684-0.325-0.543-228.518-394.209 3.364-4.557 34.506-46.224-16.385-198.244-0.651-7.053 6.945-1.953 19.531-5.642 32.010-22.57 1.411 14.866 22.461 227.541 138.131 356.231 28.104 71.832 0.651 1.736v1.845l-1.411 33.637-0.977 23.98zM836.799 865.471l0.325-7.813-27.452-70.313-138.999-358.402-0.108-1.194-21.051-213.869-9.006 6.293-1.194 0.76-15.517 4.449 16.168 194.229 0.217 3.255-1.953 2.604-33.095 44.488 222.333 383.25 9.332 12.261z" />
<glyph unicode="&#xe92e;" horiz-adv-x="903" d="M656.785 210.409c-4.814 0.112-9.552-2.931-11.452-7.356s-0.843-9.956 2.554-13.369c19.501-20.361 25.419-57.473 9.549-92.015-2.304-4.937-4.409-9.045-6.836-12.587-0.041-0.060-0.067-0.157-0.108-0.217l-2.821-3.255c-0.037-0.072-0.073-0.144-0.108-0.217l-10.851-13.346-16.385-12.695-22.353-8.138-21.593-1.953c-5.696-0.612-10.555-5.759-10.84-11.48s4.040-11.325 9.646-12.5c0 0 24.252-5.33 38.846-20.291 0.072-0.074 0.145-0.143 0.217-0.217 0.29-0.313 13.778-14.967 25.825-47.201 0.395-1.083 0.945-2.109 1.628-3.038 0 0 4.997-7.392 14.432-11.827 4.717-2.218 11.255-3.703 18.121-1.845s13.016 6.731 17.795 13.672c2.423 3.5 2.81 8.311 0.976 12.153 0 0-7.033 14.879-13.889 31.359-3.428 8.24-6.859 16.888-9.223 23.98s-3.138 14.003-3.255 12.478c0.078 0.793 0.078 1.594 0 2.387 0 0-0.748 6.059-0.868 13.781-0.118 7.602 0.853 16.765 2.17 20.399l0.651 1.302c0.559 1.117 0.317 0.536-0.108 0.217 2.41 1.802 4.11 4.53 4.666 7.487 2.228 3.801 4.544 7.537 6.293 11.285 0 0.036 0 0.072 0 0.108 19.547 42.543 13.724 90.088-13.998 119.033-2.212 2.395-5.421 3.84-8.681 3.906z" />
<glyph unicode="&#xe92f;" glyph-name="nail-polish-2" horiz-adv-x="988" d="M221.828 960c-77.438 0-140.926-63.488-140.926-140.926v-440.068c0-77.438 63.488-140.926 140.926-140.926h100.801c77.438 0 140.926 63.488 140.926 140.926v440.068c0 77.438-63.488 140.926-140.926 140.926h-100.801zM221.828 928.683h100.801c60.356 0 109.609-49.253 109.609-109.609v-440.068c0-60.356-49.253-109.609-109.609-109.609h-100.801c-60.356 0-109.609 49.253-109.609 109.609v440.068c0 60.356 49.253 109.609 109.609 109.609zM258.365 394.175c-54.057 1.519-88.927-24.842-109.12-51.216-20.237-26.432-26.75-53.337-26.75-53.337l15.169-3.752c0 0 5.851 23.953 23.977 47.628s47.473 46.506 96.561 45.018h39.309c0.495-0.021 23.871-1.104 49.096-12.559 25.495-11.577 51.704-32.776 58.556-74.867l15.495 2.61c-7.763 47.684-39.164 73.494-67.69 86.448s-55.131 14.027-55.131 14.027h-39.472zM239.607 866.539c-105.589 0-154.791-91.83-154.791-91.83-1.149-2.127-1.824-4.656-1.824-7.342 0-8.664 7.023-15.687 15.687-15.687 5.979 0 11.177 3.345 13.824 8.266 0.041 0.084 39.571 75.277 127.103 75.277h54.805c1.724-0.15 30.438-2.777 62.634-14.517 33.17-12.095 66.138-32.954 75.846-67.038 1.533-7.167 7.813-12.463 15.33-12.463 8.649 0 15.66 7.011 15.66 15.66 0 1.956-0.359 3.829-1.014 5.556-13.744 48.276-57.535 73.904-95.22 87.645s-71.931 16.474-71.931 16.474h-56.11zM95.582 710.443c0 0-3.525-0.187-7.014-1.142s-8.038-2.727-13.049-5.709c-10.021-5.965-21.946-16.834-33.111-36.047-22.331-38.426-42.408-109.532-42.408-246.784v-484.271h268.314c0.066-0.001 0.144-0.002 0.221-0.002 8.649 0 15.66 7.011 15.66 15.66s-7.011 15.66-15.66 15.66c-0.078 0-0.156-0.001-0.233-0.002h-236.986v452.954c0 134.161 20.308 200.23 38.168 230.962 8.93 15.366 16.969 21.949 22.020 24.956 2.461 1.465 4.128 2.187 5.056 2.447 8.44 0.271 15.178 7.178 15.178 15.659 0 8.652-7.014 15.666-15.666 15.666-0.173 0-0.345-0.003-0.516-0.008zM447.571 705.876c-8.509-0.182-15.338-7.123-15.338-15.659 0-8.65 7.012-15.662 15.662-15.662 0.115 0 0.231 0.001 0.346 0.004-0.017 0-1.352-0.004-0.67-0.163s2.181-0.52 4.404-1.794c4.446-2.548 11.983-8.529 20.389-23.325 16.811-29.591 36.047-94.764 36.047-229.005v-452.954h-236.997c-0.066 0.001-0.144 0.002-0.221 0.002-8.649 0-15.66-7.011-15.66-15.66s7.011-15.66 15.66-15.66c0.078 0 0.156 0.001 0.233 0.002h268.303v484.271c0 137.172-18.833 207.022-40.125 244.5-10.646 18.739-22.127 29.265-31.969 34.905-4.921 2.82-9.401 4.405-12.886 5.219s-7.177 0.979-7.177 0.979zM693.866 946.951l-0.163-2.447-40.614-492.1-0.326-2.936h2.936l103.737 1.142v-215.141h38.168v215.141h110.425l-0.326 2.773-46.975 491.284-0.163 2.284h-166.697zM764.818 234.491l-0.163-2.447-0.979-29.849-0.163-2.61h10.602v-39.962l-38.983-114.829-1.142-3.425h89.058l-0.979 3.425-35.884 115.644v0.163l-0.652 38.983h9.95v34.905h-30.665zM675.924 431.853v-22.183c-8.438-0.466-25.192-1.675-45.997-8.645-13.565-4.544-27.465-11.267-38.331-21.857s-18.431-25.395-18.431-43.876v-0.489c0 0 1.534-27.228 3.099-56.762s3.099-61.898 3.099-70.137v-0.489l0.163-0.489c0 0 21.422-167.554 69.158-261.953l2.12-4.404h129.509v15.658h-119.559c-43.875 90.211-65.733 252.656-65.733 252.656-0.042 10.465-1.554 40.804-3.099 69.974-1.558 29.407-3.081 56.126-3.099 56.436 0 0.002 0 0.326 0 0.326 0.088 14.207 5.358 24.165 13.701 32.296 8.414 8.2 20.154 14.201 32.296 18.268 24.283 8.135 49.096 8.482 49.096 8.482l7.666 0.163v21.367h61.166v15.658h-76.824zM808.042 431.853v-15.658h61.003v-21.367l7.829-0.163c0 0 24.65-0.346 48.933-8.482 12.141-4.068 24.045-10.068 32.459-18.268 8.343-8.131 13.613-18.088 13.701-32.296 0.001-0.121 0-0.205 0-0.326-0.016-0.31-1.541-27.029-3.099-56.436-1.567-29.577-3.262-60.924-3.262-70.952-0.39-2.892-22.252-162.281-65.733-251.677h-119.559v-15.658h129.672l2.12 4.404c47.736 94.399 69.158 261.953 69.158 261.953v0.978c0 8.239 1.697 40.603 3.262 70.137s3.099 56.762 3.099 56.762v0.489c0 18.482-7.565 33.286-18.431 43.876s-24.766 17.312-38.331 21.857c-20.936 7.014-37.822 8.192-46.16 8.645v22.183h-76.661z" />
<glyph unicode="&#xe930;" glyph-name="connection" horiz-adv-x="1280" d="M640 384c105.87 0 201.87-43.066 271.402-112.598l-90.468-90.468c-46.354 46.356-110.356 75.066-180.934 75.066s-134.578-28.71-180.934-75.066l-90.468 90.468c69.532 69.532 165.532 112.598 271.402 112.598zM187.452 452.548c120.88 120.88 281.598 187.452 452.548 187.452s331.668-66.572 452.55-187.452l-90.51-90.508c-96.706 96.704-225.28 149.96-362.040 149.96-136.762 0-265.334-53.256-362.038-149.962l-90.51 90.51zM988.784 825.562c106.702-45.132 202.516-109.728 284.782-191.996v0l-90.508-90.508c-145.056 145.056-337.92 224.942-543.058 224.942-205.14 0-398-79.886-543.058-224.942l-90.51 90.51c82.268 82.266 178.082 146.862 284.784 191.994 110.504 46.738 227.852 70.438 348.784 70.438s238.278-23.7 348.784-70.438zM576 64c0 35.346 28.654 64 64 64s64-28.654 64-64c0-35.346-28.654-64-64-64s-64 28.654-64 64z" />
<glyph unicode="&#xe931;" glyph-name="books" horiz-adv-x="1152" d="M224 832h-192c-17.6 0-32-14.4-32-32v-704c0-17.6 14.4-32 32-32h192c17.6 0 32 14.4 32 32v704c0 17.6-14.4 32-32 32zM192 640h-128v64h128v-64zM544 832h-192c-17.6 0-32-14.4-32-32v-704c0-17.6 14.4-32 32-32h192c17.6 0 32 14.4 32 32v704c0 17.6-14.4 32-32 32zM512 640h-128v64h128v-64zM765.088 782.52l-171.464-86.394c-15.716-7.918-22.096-27.258-14.178-42.976l287.978-571.548c7.918-15.718 27.258-22.098 42.976-14.178l171.464 86.392c15.716 7.92 22.096 27.26 14.178 42.974l-287.978 571.55c-7.92 15.718-27.26 22.1-42.976 14.18z" />
<glyph unicode="&#xe932;" glyph-name="phone" d="M704 320c-64-64-64-128-128-128s-128 64-192 128-128 128-128 192 64 64 128 128-128 256-192 256-192-192-192-192c0-128 131.5-387.5 256-512s384-256 512-256c0 0 192 128 192 192s-192 256-256 192z" />
<glyph unicode="&#xe933;" glyph-name="key" d="M704 960c-176.73 0-320-143.268-320-320 0-20.026 1.858-39.616 5.376-58.624l-389.376-389.376v-192c0-35.346 28.654-64 64-64h64v64h128v128h128v128h128l83.042 83.042c34.010-12.316 70.696-19.042 108.958-19.042 176.73 0 320 143.268 320 320s-143.27 320-320 320zM799.874 639.874c-53.020 0-96 42.98-96 96s42.98 96 96 96 96-42.98 96-96-42.98-96-96-96z" />
<glyph unicode="&#xe934;" glyph-name="hair-services" horiz-adv-x="1305" d="M1261.458 464.296c-0.001 0-0.002 0-0.003 0-6.634 0-12.032-5.292-12.203-11.885 0-0.016-2.571-49.501-35.244-65.316-0.624-0.074-1.364-0.213-2.594-0.305-2.889-0.217-7.234-0.411-12.663-0.61-10.858-0.399-26.324-0.79-45.619-1.068-38.589-0.556-92.483-0.763-155.775-0.915-126.585-0.305-290.961-0.029-447.186 0.457 3.246 0 0.962-0.24-2.289 4.119s-7.262 11.26-11.29 18.461c-4.028 7.201-8.011 14.764-12.816 21.207-4.781 6.411-10.626 13.811-21.818 13.884-0.082 0-0.071 0-0.152 0-240.572 0.976-449.474 2.441-449.474 2.441-0.511-0.028-0.983-0.082-1.446-0.163 0.073 0.010-4.583-0.465-9.692-2.583s-11.575-5.929-17.851-12.511c-12.552-13.165-23.343-36.828-23.343-77.048 0-40.451 10.704-63.436 23.649-75.828s28.531-12.969 28.531-12.969h1209.278c0.057-0.001 0.124-0.001 0.191-0.001 1.81 0 3.528 0.394 5.073 1.101-0.076-0.031 3.531 1.697 7.4 4.851s8.745 8.128 13.426 15.257c9.362 14.259 17.851 37.325 17.851 72.929 0 35.776-8.098 61.391-16.63 78.116s-18.309 25.479-18.309 25.479c-2.114 1.802-4.878 2.899-7.897 2.899-0.013 0-0.025 0-0.038 0h-1.066zM1268.323 421.118c6.382-13.547 12.663-33.463 12.663-63.317 0-31.771-7.226-49.594-13.731-59.503-3.253-4.954-6.462-7.915-8.544-9.612-0.694-0.566-0.413-0.355-0.763-0.61h-1205.769c0 0-4.523-0.668-11.595 6.103s-16.173 22.081-16.173 58.282c0 35.943 9.165 52.284 16.63 60.113 3.733 3.915 7.215 5.872 9.612 6.866s2.746 0.915 2.746 0.915c1.27-0.010 208.424-1.468 448.406-2.441-3.246 0-0.962 0.24 2.289-4.119s7.262-11.26 11.29-18.461c4.028-7.201 8.164-14.764 12.969-21.207s10.516-13.884 21.818-13.884c156.24-0.488 320.655-0.763 447.338-0.457 63.342 0.153 117.148 0.357 155.928 0.915 19.39 0.279 35.027 0.656 46.229 1.068 5.601 0.206 10.133 0.504 13.579 0.763 1.723 0.129 3.078 0.126 4.425 0.305s2.009 0.010 5.187 1.373c0.173 0.081 0.273 0.132 0.372 0.184 27.427 12.436 39.358 36.653 45.094 56.724zM1245.438 483.52c-6.326-0.502-11.27-5.759-11.27-12.171 0-1.153 0.16-2.268 0.458-3.325-0.021 0.086 2.697-11.286 1.2-23.41s-5.165-22.683-21.36-27.768c-0.023 0-0.049 0-0.076 0s-0.054 0-0.080 0c-0.419-0.138-5.171-1.212-11.591-1.831s-14.988-1.064-25.174-1.526c-20.373-0.923-47.385-1.511-78.727-1.831-62.683-0.639-142.578-0.244-221.075 0.61-150.868 1.641-285.579 4.786-296.751 5.035v6.866c0.001 0.051 0.001 0.112 0.001 0.173 0 6.742-5.465 12.207-12.207 12.207s-12.207-5.465-12.207-12.207c0-0.061 0-0.121 0.001-0.182v-18.91c0-0.001 0-0.002 0-0.003 0-6.634 5.292-12.032 11.885-12.203 0.016 0 151.946-3.478 309.125-5.188 78.589-0.855 158.376-1.253 221.381-0.61 31.502 0.321 58.763 0.885 79.642 1.831 10.439 0.473 19.305 0.995 26.395 1.678s11.957 1.328 16.783 2.899v-0.152c25.792 8.098 36.13 30.524 38.295 48.060s-1.831 32.65-1.831 32.65c-1.336 5.402-6.141 9.344-11.866 9.344-0.334 0-0.665-0.013-0.993-0.040zM1246.353 531.122l-676.195-4.425c-0.001 0-0.002 0-0.003 0-6.634 0-12.032-5.292-12.203-11.885l-1.373-90.948c-0.001-0.048-0.001-0.104-0.001-0.16 0-6.581 5.207-11.945 11.726-12.198 0.023-0.001 151.914-4.881 309.132-7.324 78.609-1.222 158.612-1.834 221.686-0.915 31.537 0.459 58.809 1.388 79.795 2.746 10.493 0.679 19.321 1.446 26.547 2.441s12.347 1.783 17.698 4.272c26.919 12.521 34.929 41.584 36.922 64.843s-1.678 43.483-1.678 43.483c-1.052 5.761-6.032 10.070-12.018 10.070-0.012 0-0.024 0-0.037 0zM1235.52 506.71c0.666-6.964 1.229-16.222 0.305-27.005-1.668-19.461-7.817-37.847-22.886-44.856 0.103 0.049-4.397-1.424-10.68-2.289s-14.736-1.633-24.869-2.289c-20.265-1.312-47.419-2.138-78.727-2.594-62.614-0.912-142.292-0.304-220.77 0.915-150.83 2.344-285.58 6.663-296.751 7.018l1.068 66.826 653.309 4.272zM756.447 422.949c-4.96-0.139-9.168-3.217-10.955-7.547l-15.744-37.766c-0.584-1.376-0.923-2.977-0.923-4.657 0-4.741 2.703-8.851 6.652-10.873 0.069-0.032 25.3-13.059 46.908-38.175s38.9-60.083 24.564-108.020c-14.868-49.714-44.206-87.245-60.266-128.923s-15.265-88.647 30.209-146.316c2.258-2.856 5.723-4.672 9.612-4.672 6.751 0 12.224 5.473 12.224 12.224 0 2.862-0.984 5.495-2.632 7.578-41.899 53.133-40.769 85.928-26.68 122.489s44.65 75.834 61.028 130.601c16.91 56.544-4.582 101.829-29.599 130.906-18.206 21.161-34.789 32.113-44.551 37.99l11.595 28.073c0.644 1.438 1.020 3.117 1.020 4.884 0 6.742-5.465 12.207-12.207 12.207-0.090 0-0.179-0.001-0.269-0.003zM784.826 959.999c-6.676-0.086-12.054-5.518-12.054-12.206 0-0.054 0-0.107 0.001-0.16v-429.632c-0.001-0.051-0.001-0.112-0.001-0.173 0-6.742 5.465-12.207 12.207-12.207s12.207 5.465 12.207 12.207c0 0.061 0 0.121-0.001 0.182v429.631c0.001 0.045 0.001 0.099 0.001 0.152 0 6.742-5.465 12.207-12.207 12.207-0.054 0-0.107 0-0.16-0.001zM922.445 422.949c-4.96-0.139-9.168-3.217-10.955-7.547l-15.744-37.766c-0.584-1.376-0.923-2.977-0.923-4.657 0-4.741 2.703-8.851 6.652-10.873 0.069-0.032 25.3-13.059 46.908-38.175s38.9-60.083 24.564-108.020c-14.868-49.714-44.206-87.245-60.266-128.923s-15.265-88.647 30.209-146.316c2.258-2.856 5.723-4.672 9.612-4.672 6.751 0 12.224 5.473 12.224 12.224 0 2.862-0.984 5.495-2.632 7.578-41.899 53.133-40.769 85.928-26.68 122.489s44.65 75.834 61.028 130.601c16.91 56.544-4.582 101.829-29.599 130.906-18.206 21.161-34.789 32.113-44.551 37.99l11.595 28.073c0.644 1.438 1.020 3.117 1.020 4.884 0 6.742-5.465 12.207-12.207 12.207-0.090 0-0.179-0.001-0.269-0.003zM950.823 959.999c-6.676-0.086-12.054-5.518-12.054-12.206 0-0.054 0-0.107 0.001-0.16v-429.632c-0.001-0.051-0.001-0.112-0.001-0.173 0-6.742 5.465-12.207 12.207-12.207s12.207 5.465 12.207 12.207c0 0.061 0 0.121-0.001 0.182v429.631c0.001 0.045 0.001 0.099 0.001 0.152 0 6.742-5.465 12.207-12.207 12.207-0.054 0-0.107 0-0.16-0.001zM839.446 422.949c-4.96-0.139-9.168-3.217-10.955-7.547l-15.744-37.766c-0.584-1.376-0.923-2.977-0.923-4.657 0-4.741 2.703-8.851 6.652-10.873 0.069-0.032 25.3-13.059 46.908-38.175s38.9-60.083 24.564-108.020c-14.868-49.714-44.206-87.245-60.266-128.923s-15.265-88.647 30.209-146.316c2.258-2.856 5.723-4.672 9.612-4.672 6.751 0 12.224 5.473 12.224 12.224 0 2.862-0.984 5.495-2.632 7.578-41.899 53.133-40.769 85.928-26.68 122.489s44.65 75.834 61.028 130.601c16.91 56.544-4.582 101.829-29.599 130.906-18.206 21.161-34.789 32.113-44.551 37.99l11.595 28.073c0.644 1.438 1.020 3.117 1.020 4.884 0 6.742-5.465 12.207-12.207 12.207-0.090 0-0.179-0.001-0.269-0.003zM867.824 959.999c-6.676-0.086-12.054-5.518-12.054-12.206 0-0.054 0-0.107 0.001-0.16v-429.632c-0.001-0.051-0.001-0.112-0.001-0.173 0-6.742 5.465-12.207 12.207-12.207s12.207 5.465 12.207 12.207c0 0.061 0 0.121-0.001 0.182v429.631c0.001 0.045 0.001 0.099 0.001 0.152 0 6.742-5.465 12.207-12.207 12.207-0.054 0-0.107 0-0.16-0.001zM1005.443 422.949c-4.96-0.139-9.168-3.217-10.955-7.547l-15.744-37.766c-0.584-1.376-0.923-2.977-0.923-4.657 0-4.741 2.703-8.851 6.652-10.873 0.069-0.032 25.3-13.059 46.908-38.175s38.9-60.083 24.564-108.020c-14.868-49.714-44.206-87.245-60.266-128.923s-15.265-88.647 30.209-146.316c2.258-2.856 5.723-4.672 9.612-4.672 6.751 0 12.224 5.473 12.224 12.224 0 2.862-0.984 5.495-2.632 7.578-41.899 53.133-40.769 85.928-26.68 122.489s44.65 75.834 61.028 130.601c16.91 56.544-4.582 101.829-29.599 130.906-18.206 21.161-34.789 32.113-44.551 37.99l11.595 28.073c0.644 1.438 1.020 3.117 1.020 4.884 0 6.742-5.465 12.207-12.207 12.207-0.090 0-0.179-0.001-0.269-0.003zM1033.822 959.999c-6.676-0.086-12.054-5.518-12.054-12.206 0-0.054 0-0.107 0.001-0.16v-429.632c-0.001-0.051-0.001-0.112-0.001-0.173 0-6.742 5.465-12.207 12.207-12.207s12.207 5.465 12.207 12.207c0 0.061 0 0.121-0.001 0.182v429.631c0.001 0.045 0.001 0.099 0.001 0.152 0 6.742-5.465 12.207-12.207 12.207-0.054 0-0.107 0-0.16-0.001z" />
<glyph unicode="&#xe935;" glyph-name="nail-services" horiz-adv-x="821" d="M56.976 435.176c-2.095-0.127-4.020-0.751-5.692-1.753-30.233-17.113-51.283-49.687-51.283-86.996v-397.727c-0.001-0.053-0.001-0.115-0.001-0.177 0-6.916 5.607-12.523 12.523-12.523s12.523 5.607 12.523 12.523c0 0.062 0 0.124-0.001 0.186v397.717c0 27.805 15.858 52.363 38.661 65.27 3.898 2.173 6.492 6.271 6.492 10.975 0 6.916-5.607 12.523-12.523 12.523-0.246 0-0.49-0.007-0.732-0.021zM257.796 435.176c-6.478-0.528-11.536-5.915-11.536-12.484 0-4.718 2.609-8.827 6.463-10.962 22.809-12.907 38.256-37.37 38.256-65.303v-397.727c-0.001-0.053-0.001-0.115-0.001-0.177 0-6.916 5.607-12.523 12.523-12.523s12.523 5.607 12.523 12.523c0 0.062 0 0.124-0.001 0.186v397.717c0 37.18-20.678 69.849-51.027 87.027-1.825 1.099-4.028 1.748-6.382 1.748-0.288 0-0.573-0.010-0.856-0.029zM129.603 530.342c-46.438 0-84.523-38.242-84.523-84.679v-217.411c0-46.438 38.085-84.679 84.523-84.679h56.662c46.438 0 84.679 38.242 84.679 84.679v217.255c0.001 0.054-0.001 0.103 0 0.156 0.497 46.861-37.93 84.679-84.21 84.679h-57.131zM129.603 505.299h57.131c32.806 0 59.581-26.273 59.166-59.479 0-0.023 0-0.051 0-0.078s0-0.055 0-0.082v-217.407c0-32.701-26.935-59.636-59.636-59.636h-56.662c-32.701 0-59.479 26.935-59.479 59.636v217.411c0 32.701 26.778 59.636 59.479 59.636zM167.795 960c-22.122 0-41.549-12.458-54.47-30.679s-20.192-42.411-20.192-69.027v-185.324c0-12.34 10.383-21.913 22.070-21.913h130.228c12.34 0 21.913 10.226 21.913 21.913v185.324c0 0.023 0 0.051 0 0.078s0 0.055 0 0.082c-0.273 26.805-7.666 51.029-20.661 69.179s-32.408 30.366-54.47 30.366h-24.418zM167.795 934.956h24.418c12.999 0 24.704-6.724 34.122-19.879s15.738-32.507 15.965-54.783v-182.194h-124.123v182.194c0 21.969 6.128 41.417 15.496 54.627s21.183 20.035 34.122 20.035zM164.038 886.59c-6.849-0.088-12.366-5.661-12.366-12.522 0-0.055 0-0.11 0.001-0.165v-140.237c-0.001-0.053-0.001-0.115-0.001-0.177 0-6.916 5.607-12.523 12.523-12.523s12.523 5.607 12.523 12.523c0 0.062 0 0.124-0.001 0.186v140.236c0.001 0.046 0.001 0.101 0.001 0.156 0 6.916-5.607 12.523-12.523 12.523-0.055 0-0.11 0-0.165-0.001zM184.073 676.222c-6.849-0.088-12.366-5.661-12.366-12.522 0-0.055 0-0.11 0.001-0.165v-205.351c-0.001-0.053-0.001-0.115-0.001-0.177 0-6.916 5.607-12.523 12.523-12.523s12.523 5.607 12.523 12.523c0 0.062 0 0.124-0.001 0.186v205.35c0.001 0.046 0.001 0.101 0.001 0.156 0 6.916-5.607 12.523-12.523 12.523-0.055 0-0.11 0-0.165-0.001zM184.073 470.863c-6.849-0.088-12.366-5.661-12.366-12.522 0-0.055 0-0.11 0.001-0.165v-55.088c-0.001-0.053-0.001-0.115-0.001-0.177 0-6.916 5.607-12.523 12.523-12.523s12.523 5.607 12.523 12.523c0 0.062 0 0.124-0.001 0.186v55.087c0.001 0.046 0.001 0.101 0.001 0.156 0 6.916-5.607 12.523-12.523 12.523-0.055 0-0.11 0-0.165-0.001zM182.664 472.429c-6.904-0.016-12.495-5.617-12.495-12.523 0-0.942 0.104-1.86 0.301-2.743l10.002-50.943c0.898-6.112 6.106-10.751 12.397-10.751 6.916 0 12.523 5.607 12.523 12.523 0 1.038-0.126 2.046-0.364 3.010l-10 51.097c-1.079 5.91-6.188 10.331-12.33 10.331-0.013 0-0.025 0-0.038 0zM179.221 472.272c-5.461-0.686-9.79-4.803-10.788-10.096l-10.030-51.261c-0.22-0.878-0.346-1.886-0.346-2.924 0-6.916 5.607-12.523 12.523-12.523 6.291 0 11.499 4.639 12.389 10.683l10.026 51.095c0.173 0.78 0.272 1.677 0.272 2.596 0 6.916-5.607 12.523-12.523 12.523-0.537 0-1.066-0.034-1.585-0.099zM258.578 353.158c-3.4-0.138-6.431-1.612-8.603-3.907l-170.303-170.304c-2.25-2.269-3.64-5.394-3.64-8.844 0-6.938 5.624-12.562 12.562-12.562 3.488 0 6.645 1.422 8.921 3.718l170.299 170.299c2.412 2.287 3.912 5.515 3.912 9.093 0 6.916-5.607 12.523-12.523 12.523-0.219 0-0.437-0.006-0.654-0.017zM258.735 420.776c-3.4-0.138-6.431-1.612-8.603-3.907l-193.938-193.313c-2.542-2.301-4.133-5.613-4.133-9.297 0-6.916 5.607-12.523 12.523-12.523 3.684 0 6.996 1.59 9.287 4.122l193.786 193.318c2.404 2.286 3.899 5.509 3.899 9.081 0 6.916-5.607 12.523-12.523 12.523-0.105 0-0.209-0.001-0.313-0.004zM182.508 415.767c-3.4-0.138-6.431-1.612-8.603-3.907l-121.781-121.625c-2.25-2.269-3.64-5.394-3.64-8.844 0-6.938 5.624-12.562 12.562-12.562 3.488 0 6.645 1.422 8.921 3.718l121.62 121.62c2.407 2.287 3.904 5.511 3.904 9.086 0 6.916-5.607 12.523-12.523 12.523-0.162 0-0.323-0.003-0.483-0.009zM487.792-34.207c-15.527 31.054-30.553 59.103-37.065 95.166h27.047c1.002 0 2.504-14.525 3.506-21.037 0.501-3.506 1.002-6.511 1.503-9.016 1.002-6.511 7.012-10.518 13.524-9.517s10.518 7.012 9.517 13.524c-0.501 3.005-1.002 6.511-2.004 10.018-1.002 5.009-2.004 16.529-3.005 16.529h23.040c6.511 0 11.52 2.504 11.52 9.016s-5.009 9.016-11.52 9.016h-24.543c0.501 18.032 5.009 40.571 20.035 61.608 19.534 27.047 67.117 65.615 102.68 91.159 35.562-25.545 83.145-64.613 102.68-91.66 15.026-21.037 19.534-43.075 20.035-61.107h-24.543c-6.511 0-11.52-2.504-11.52-9.016s5.009-9.016 11.52-9.016h23.040c-1.002 0-2.004-11.52-3.005-16.529-0.501-3.506-1.503-6.511-2.004-10.018-1.002-6.511 3.005-12.021 9.517-13.524 6.511-1.002 12.021 3.005 13.524 9.517 0.501 3.005 1.002 6.011 1.503 9.016 1.002 6.511 2.504 21.037 3.506 21.037h27.047c-7.012-36.564-21.538-64.112-37.065-95.166-3.005-5.51-0.501-12.522 5.009-15.527s12.522-0.501 15.527 5.009c29.051 58.102 56.098 119.709 38.067 182.82-13.023 44.578-45.079 81.643-76.133 117.205-15.026 17.531-29.552 33.559-41.072 50.588-2.504 3.005-5.009 7.012-8.515 11.019-9.016 11.52-22.539 29.051-22.039 40.070 0 0.501 2.504 36.063 20.035 90.659 20.536 63.11-31.054 105.685-33.058 107.187-3.005 2.504-7.513 3.506-11.019 2.004-4.007-1.503-6.511-4.508-7.513-8.515l-14.025-58.102-14.025 58.102c-1.002 4.007-4.007 7.012-7.513 8.515-4.007 1.503-8.014 0.501-11.019-2.004-2.004-2.004-53.093-44.077-33.058-107.187 17.531-54.595 20.035-90.659 20.035-90.659 0.501-11.019-13.023-28.55-22.039-40.070-3.005-4.007-6.011-7.513-8.515-11.019-12.021-17.030-26.046-33.559-41.072-50.588-31.054-35.562-63.11-72.627-76.133-117.205-4.007-14.525-6.011-28.55-6.011-42.574 0-48.084 21.538-95.166 44.077-139.744 3.005-5.51 10.018-8.014 15.527-5.009 6.511 2.504 9.016 9.016 6.011 15.026zM451.228 128.577c11.52 39.569 42.074 76.133 71.625 109.692 15.026 17.030 30.053 35.061 42.574 53.093 2.004 3.005 4.508 6.511 7.513 10.518 12.522 16.028 28.049 36.063 27.047 56.098 0 0.501-2.504 38.567-21.037 96.168-9.517 29.552 1.503 53.093 12.021 67.618l17.531-73.629c1.503-6.011 7.513-10.018 13.524-8.515 6.011-1.503 12.522 2.504 14.025 8.515l17.531 73.629c10.518-14.525 21.538-38.067 12.021-67.618-18.532-57.601-21.037-96.168-21.037-96.168-1.503-20.035 14.525-40.070 27.047-55.597 3.005-3.506 5.51-7.012 7.513-10.018 12.522-18.032 28.049-35.562 42.574-52.592 29.552-34.060 59.604-71.625 71.625-111.194 4.508-15.527 5.51-31.555 4.508-49.587h-29.552c-0.501 18.032-5.51 49.086-24.543 75.131-20.035 28.049-65.615 65.615-101.678 91.66 13.023 9.016 21.538 15.527 22.039 15.527 5.51 3.506 7.012 11.019 3.506 16.529s-10.518 7.012-16.028 3.506c-1.503-1.002-13.023-8.515-29.552-20.035-16.529 11.52-28.049 19.033-29.552 20.035-5.51 3.506-12.522 2.004-16.028-3.506-1.503-2.004-2.004-4.007-2.004-6.511 0-4.007 2.004-7.513 5.51-9.517 0.501 0 9.016-6.011 22.039-15.026-36.063-26.046-81.643-65.114-101.678-93.163-18.532-26.046-24.042-57.1-24.543-75.131h-29.051c-1.002 19.033 0 34.56 4.508 50.088z" />
<glyph unicode="&#xe936;" glyph-name="bridal" horiz-adv-x="615" d="M307.499 866.725c-130.64 0-238.184-86.875-238.184-195.903l-69.187-549.142c-0.031-0.231-0.048-0.498-0.048-0.769 0-3.369 2.708-6.105 6.066-6.15h52.407v12.3h-45.356l68.419 542.992c0.008 0.115 0.012 0.249 0.012 0.384s-0.004 0.269-0.013 0.402c0.001 100.874 100.685 183.584 225.885 183.584 125.618 0 226.012-82.695 226.012-183.603-0.008-0.115-0.012-0.249-0.012-0.384s0.004-0.269 0.013-0.402l68.418-542.974h-45.74v-12.3h52.659c0.014 0 0.031 0 0.048 0 3.397 0 6.151 2.754 6.151 6.151 0 0.271-0.018 0.538-0.051 0.799l-69.184 549.111c0 109.012-107.271 195.903-238.312 195.903zM308.268 960c-56.361-0.494-121.993-16.788-191.931-63.55-71.734-48.104-100.117-129.724-96.862-224.731s37.655-204.086 91.865-310.446c1.035-2.007 3.251-3.347 5.509-3.331h382.196c2.258-0.016 4.474 1.324 5.509 3.331 54.212 106.364 88.025 214.623 90.968 309.165 2.934 94.235-25.3 175.379-95.197 225.371-0.14 0.132-0.283 0.295-0.384 0.384-0.057 0.050-0.193 0.074-0.256 0.128-0.164 0.141-0.287 0.326-0.512 0.512-0.625 0.517-1.518 1.144-2.691 2.050-2.346 1.812-5.759 4.387-10.25 7.431-8.982 6.088-22.076 14.136-38.822 22.166-33.491 16.059-81.443 32.025-139.143 31.519zM314.93 855.707c17.22-0.41 34.081-2.050 50.481-6.15 4.1-0.82 8.097-2.511 11.787-3.331l4.1-1.666c2.050-0.82 3.716-1.64 5.766-2.050 3.69-1.64 7.841-2.844 11.531-4.484s7.329-3.613 11.019-5.253c14.35-7.38 27.496-16.067 38.566-25.497 11.48-9.020 20.884-19.244 29.084-29.084 4.1-4.92 7.867-9.814 11.147-14.734s6.099-9.456 8.969-13.966c2.46-4.51 4.869-8.994 6.919-12.684 2.050-4.1 3.767-7.841 4.997-11.531 3.28-6.97 4.51-12.326 6.15-16.016 1.23-3.69 2.050-5.637 2.050-5.637 0-0.41 0.026-0.897-0.384-0.897-0.41-0.41-0.897-0.026-0.897 0.384 0 0-0.794 2.076-2.434 5.766s-3.741 9.071-7.431 15.631c-1.64 3.28-3.587 6.944-5.637 10.634-2.46 3.69-4.946 7.816-7.816 11.916s-6.201 8.559-9.481 13.069c-3.69 4.51-7.303 9.071-11.403 13.581-8.61 9.020-18.117 18.45-29.597 26.65-11.070 8.61-23.754 15.964-37.284 22.934s-28.649 11.531-43.819 15.631c-15.58 3.69-31.672 5.253-47.662 5.253l-12.3-0.384c-2.050 0-4.51 0.026-6.15-0.384l-5.637-0.897c-3.69-0.41-7.841-0.717-11.531-1.537-4.1-0.82-7.816-1.742-11.916-2.562-15.17-4.1-30.289-8.533-43.819-15.503s-26.624-14.324-37.284-22.934c-11.48-8.2-20.987-17.63-29.597-26.65-4.1-4.51-7.713-9.481-11.403-13.581-3.28-4.51-6.611-8.969-9.481-13.069s-5.381-8.226-7.431-11.916c-2.46-3.69-3.997-7.354-5.637-10.634-3.69-6.56-5.791-11.941-7.431-15.631s-2.434-5.766-2.434-5.766c0-0.41-0.487-0.384-0.897-0.384s-0.384 0.359-0.384 0.769c0 0 0.82 2.076 2.050 5.766s2.87 9.43 6.15 16.4c1.64 3.28 2.947 7.431 4.997 11.531s4.459 8.174 6.919 12.684c2.87 4.51 5.689 9.046 8.969 13.966s7.047 9.404 11.147 14.734c8.2 9.84 17.604 20.064 29.084 29.084 11.070 9.43 24.216 18.117 38.566 25.497 3.69 1.64 7.329 3.613 11.019 5.253s7.841 2.844 11.531 4.484c2.050 0.82 3.716 1.64 5.766 2.050l6.15 1.666c4.1 1.23 7.687 2.511 11.787 3.331 16.4 4.1 33.671 5.74 50.481 6.15zM152.725 700.932c-6.415-38.422-5.125-67.009-5.125-67.009 0.187-2.551 2.134-4.877 4.612-5.509 109.796-28.789 185.812 14.956 234.34 68.29 41.452-54.53 189.18-7.259 164.384-111.597-0.012-0.043 0.012-0.085 0-0.128-6.836-24.898-25.762-41.719-45.484-44.587-2.174-0.325-4.114-1.907-4.869-3.972-32.079-87.015-104.169-146.959-187.318-146.959s-155.239 59.943-187.318 146.959c-0.775 2.099-2.778 3.691-4.997 3.972-19.603 2.495-38.942 19.789-45.74 44.715-8.696 31.382 5.422 61.209 29.597 68.675 2.385 0.722 4.203 3.022 4.356 5.509 0.156 2.148 0.41 4.319 0.641 6.534 13.341 8.923 27.899 21.258 42.922 35.106zM260.862 374.983v-42.922c0-6.549-1.799-9.541-4.1-11.531s-5.974-3.203-10.762-3.203h-63.037c-38.501 0-70.295-9.453-91.993-33.184s-32.672-60.702-32.672-114.031v-213.584c0-11.243 9.257-20.5 20.5-20.5h457.533c11.243 0 20.5 9.257 20.5 20.5v213.584c0 53.329-10.973 90.3-32.672 114.031s-53.493 33.184-91.993 33.184h-63.55c-4.788 0-8.462 1.213-10.762 3.203s-3.972 4.982-3.972 11.531v42.922h-12.3v-42.922c0-9.031 3.044-16.314 8.328-20.884s12.014-6.15 18.706-6.15h63.55c36.529 0 64.108-8.535 82.897-29.084s29.469-54.2 29.469-105.831v-213.584c0-4.337-3.863-8.2-8.2-8.2h-457.533c-4.337 0-8.2 3.863-8.2 8.2v213.584c0 51.631 10.68 85.282 29.469 105.831s46.368 29.084 82.897 29.084h63.037c6.692 0 13.55 1.58 18.834 6.15s8.328 11.854 8.328 20.884v42.922h-12.3zM282.643 519.892c-2.755 0.047-5.386-0.256-7.816-0.897-9.719-2.565-16.016-10.83-16.016-19.603 0-9.904 7.23-17.906 16.272-24.856s20.568-12.428 32.416-12.428c11.847 0 23.502 5.477 32.544 12.428s16.272 14.953 16.272 24.856c0 8.631-6.096 17.017-15.759 19.603-8.806 2.357-20.091-0.488-32.928-8.328-9.139 5.737-17.683 9.1-24.984 9.225zM241.947 316.233c-1.904-0.125-3.558-1.1-4.6-2.544l-95.465-130.833c-0.722-0.995-1.154-2.241-1.154-3.587 0-0.045 0-0.090 0.001-0.135v-236.896c0-0.026-0.001-0.056-0.001-0.087 0-3.397 2.754-6.151 6.151-6.151s6.151 2.754 6.151 6.151c0 0.031 0 0.061-0.001 0.092v235.104l94.3 129.021c0.789 1.023 1.264 2.324 1.264 3.735 0 3.397-2.754 6.151-6.151 6.151-0.174 0-0.346-0.007-0.517-0.021zM372.378 316.233c-3.272-0.156-5.866-2.847-5.866-6.144 0-1.405 0.471-2.701 1.265-3.736l94.289-129.007v-235.109c0-0.026-0.001-0.056-0.001-0.087 0-3.397 2.754-6.151 6.151-6.151s6.151 2.754 6.151 6.151c0 0.031 0 0.061-0.001 0.092v236.898c0.001 0.038 0.001 0.083 0.001 0.128 0 1.347-0.433 2.592-1.167 3.605l-95.44 130.797c-1.129 1.566-2.949 2.574-5.004 2.574-0.133 0-0.265-0.004-0.395-0.012zM436.569 192.081c-68.059 6.11-120.085-38.325-129.406-46.765-10.772 9.702-79.758 68.166-162.334 39.719-2.409-0.87-4.101-3.137-4.101-5.799 0-0.033 0-0.067 0.001-0.1v-236.897c0-0.026-0.001-0.056-0.001-0.087 0-3.397 2.754-6.151 6.151-6.151s6.151 2.754 6.151 6.151c0 0.031 0 0.061-0.001 0.092v232.029c79.985 24.386 149.906-41.384 149.906-41.384 1.1-1.043 2.589-1.684 4.228-1.684s3.128 0.641 4.231 1.686c-0.003-0.003 69.879 66.232 149.903 41.382v-232.034c0-0.026-0.001-0.056-0.001-0.087 0-3.397 2.754-6.151 6.151-6.151s6.151 2.754 6.151 6.151c0 0.031 0 0.061-0.001 0.092v236.898c0 0.028 0.001 0.061 0.001 0.095 0 2.662-1.691 4.929-4.058 5.785-11.246 3.927-22.289 6.101-32.971 7.060zM258.091 317.386c-2.058-0.235-3.788-1.455-4.725-3.171l-67.281-124.697c-0.47-0.852-0.747-1.868-0.747-2.948 0-3.419 2.772-6.192 6.192-6.192 2.34 0 4.377 1.298 5.43 3.214l67.153 124.697c0.485 0.859 0.77 1.886 0.77 2.98 0 3.397-2.754 6.151-6.151 6.151-0.226 0-0.449-0.012-0.668-0.036zM355.594 317.386c-3.054-0.391-5.39-2.975-5.39-6.103 0-1.099 0.288-2.131 0.794-3.024l67.121-124.635c1.069-1.948 3.106-3.246 5.446-3.246 3.419 0 6.192 2.772 6.192 6.192 0 1.080-0.277 2.096-0.763 2.98l-67.249 124.633c-1.058 1.947-3.088 3.246-5.422 3.246-0.257 0-0.51-0.016-0.758-0.046zM257.787 317.327c-2.955-0.484-5.183-3.019-5.183-6.074 0-0.298 0.021-0.591 0.062-0.878-0.004 0.033 1.666-13.432 9.99-26.489s24.456-25.903 50.353-23.447c23.43 2.231 36.598 15.118 42.794 27.162s6.278 23.575 6.278 23.575c0.001 0.044 0.002 0.096 0.002 0.148 0 3.397-2.754 6.151-6.151 6.151-1.767 0-3.361-0.745-4.483-1.939-23.851-24.82-44.548-24.146-60.862-18.197s-27.291 17.937-27.291 17.937c-1.134 1.297-2.791 2.112-4.639 2.112-0.307 0-0.609-0.023-0.904-0.066zM345.552 295.161c-0.315-0.706-0.272-1.206-0.641-1.922-4.772-9.276-13.436-18.759-33.056-20.628-21.663-2.054-32.309 7.394-38.95 17.809-0.579 0.908-0.651 1.652-1.153 2.562 4.283-2.661 9.067-5.155 14.606-7.175 16.036-5.848 37.409-5.627 59.194 9.353z" />
<glyph unicode="&#xe937;" glyph-name="freelancer" horiz-adv-x="916" d="M514.951 888.107c0 0-52.522-118.865 63.184-195.081s231.807-247.998 173.757-413.462c0 0 194.686 118.865 152.827 405.564-42.254 287.093-326.583 325.004-389.768 202.979zM751.892 273.641c-1.185 0-2.764 0.395-3.554 1.185-1.975 1.58-2.764 4.344-1.975 6.713 54.101 155.196-47.783 325.399-171.387 406.748-118.47 78.19-65.949 201.4-65.159 202.584 0 0 0 0.395 0 0.395 27.248 52.522 93.197 78.19 168.228 65.554 53.312-9.083 104.649-36.726 144.139-78.19 46.203-48.178 76.611-114.916 88.063-192.317 22.114-150.063-21.325-253.922-61.605-314.736-43.834-65.949-92.012-95.961-93.987-97.146-0.79-0.395-1.975-0.79-2.764-0.79zM520.085 885.738c-2.764-6.713-48.178-115.706 61.21-187.578 122.814-80.955 224.699-247.603 181.26-403.589 17.376 13.427 48.178 41.070 76.611 83.719 38.7 58.84 80.56 159.54 59.235 305.654-24.879 168.623-131.107 245.234-222.724 260.635-69.503 11.847-130.712-11.057-155.591-58.84zM837.191-64h-356.596c-11.057 0-19.745 8.688-19.745 19.745v213.247c-59.63-80.165-118.076-137.031-158.355-152.827-13.032-5.134-35.146 6.713-99.12 136.241-31.987 64.369-60.42 131.107-65.159 142.164-6.713 4.344-34.356 22.509-59.63 37.516-45.414 27.248-65.159 75.031-57.261 104.254 3.554 13.032 12.637 20.535 24.879 20.535 9.478 0 17.376-8.688 26.853-20.14 14.216-16.191 33.172-37.911 65.949-43.834 3.159-0.395 5.529-3.554 4.739-6.713-0.395-3.159-3.554-5.529-6.713-4.739-36.726 6.713-57.261 30.407-72.662 47.388-6.713 7.898-13.822 15.796-18.165 15.796-6.713 0-11.452-3.949-13.427-11.847-5.924-21.72 8.688-65.159 52.127-90.827 28.828-17.376 61.21-38.7 61.605-38.7 0.79-0.79 1.58-1.58 1.975-2.764 0.395-0.79 31.197-73.452 65.554-143.349 66.738-135.056 83.324-130.712 84.114-130.317 31.592 12.637 90.827 62 163.884 163.489 1.58 1.975 4.344 3.159 6.713 2.369s3.949-3.159 3.949-5.529v-231.412c0-4.344 3.554-7.898 7.898-7.898h356.596c4.344 0 7.898 3.554 7.898 7.898v205.744c0 90.038-33.172 129.923-108.203 129.923h-61.21c-16.586 0-26.063 9.873-26.063 26.063v57.261c0 3.159 2.764 5.924 5.924 5.924s5.924-2.764 5.924-5.924v-57.261c0-9.873 4.344-14.216 14.216-14.216h61.21c81.745 0 120.050-45.019 120.050-141.77v-205.744c0-10.662-9.083-19.745-19.745-19.745zM306.838 104.228c0 0-0.395 0 0 0-2.369 0-3.949 1.185-5.134 2.764l-122.419 196.266c-1.185 1.58-1.185 3.554-0.395 5.529 0.395 0.395 21.72 51.337-2.764 76.216-20.14 20.535-31.197 43.834-35.936 56.076-2.369-2.369-4.739-5.924-5.529-9.873-1.185-4.739 0-9.478 3.554-14.611 8.293-12.637 6.318-25.274 5.134-35.541-1.58-11.057-2.369-16.981 4.739-22.904 2.369-1.975 2.764-5.924 0.79-8.293s-5.924-2.764-8.293-0.79c-12.242 10.267-10.267 22.509-8.688 33.567 1.58 9.478 2.764 18.165-3.159 27.248-5.134 7.898-6.713 15.796-5.134 23.694 3.159 13.822 16.191 22.114 16.586 22.509 1.58 0.79 3.554 1.185 5.134 0.395s3.159-1.975 3.554-3.949c0-0.395 9.873-32.382 35.936-59.235 26.458-27.248 11.057-74.241 6.318-86.483l116.496-186.788 103.859 125.974c3.159 4.739 41.070 58.84 86.483 57.261h61.21c7.898 0 14.216 6.318 14.216 14.216v54.101c0 3.159 2.764 5.924 5.924 5.924s5.924-2.764 5.924-5.924v-54.101c0-14.611-11.847-26.063-26.063-26.063h-61.21c-39.885 1.185-76.216-51.732-76.611-52.522 0 0-0.395-0.395-0.395-0.395l-109.388-132.687c-1.185-0.79-3.159-1.58-4.739-1.58zM775.586-64c-3.159 0-5.924 2.764-5.924 5.924v228.253c0 3.159 2.764 5.924 5.924 5.924s5.924-2.764 5.924-5.924v-228.253c0-3.159-2.764-5.924-5.924-5.924zM616.441 234.545c-39.885 0-72.662 27.643-72.662 62 0 3.159 2.764 5.924 5.924 5.924s5.924-2.764 5.924-5.924c0-27.643 27.248-50.152 60.815-50.152s60.815 22.509 60.815 50.152c0 3.159 2.764 5.924 5.924 5.924s5.924-2.764 5.924-5.924c-0.395-34.356-32.777-62-72.662-62zM851.012 104.228h-75.426c-3.159 0-5.924 2.764-5.924 5.924s2.764 5.924 5.924 5.924h75.426c3.159 0 5.924-2.764 5.924-5.924s-2.764-5.924-5.924-5.924zM428.073 132.266c-1.58 0-3.159 0.395-4.344 1.58l-54.101 54.101c-2.369 2.369-2.369 5.924 0 8.293s5.924 2.369 8.293 0l54.101-53.707c2.369-2.369 2.369-5.924 0-8.293-1.185-1.185-2.369-1.975-3.949-1.975zM614.467 368.812c-81.745 0-156.381 57.261-190.342 146.114-23.299 4.739-43.044 24.879-50.152 51.337-9.478 34.356 4.739 68.318 32.382 79.375 5.134 60.42 28.828 116.496 65.949 157.961 38.7 43.044 89.248 66.343 142.164 66.343s103.464-23.694 142.164-66.343c37.516-41.465 60.815-97.541 65.949-157.961 27.643-11.057 41.465-45.019 32.382-78.98-7.108-26.063-26.853-46.203-50.152-51.337-33.962-89.248-108.598-146.508-190.342-146.508zM614.467 858.095c-101.49 0-187.973-95.566-196.661-217.196 0-2.369-1.975-4.344-4.344-5.134-23.694-7.108-36.331-36.726-28.433-65.949 6.318-23.299 24.089-40.675 43.834-43.044 2.369-0.395 3.949-1.58 4.739-3.949 31.592-86.088 102.674-141.77 180.47-141.77s148.878 55.681 180.47 141.77c0.79 1.975 2.764 3.554 4.739 3.949 19.745 2.764 37.516 20.14 43.834 43.044 7.898 29.223-4.739 58.84-28.038 65.949-2.369 0.79-3.949 2.764-4.344 5.134-8.688 121.63-94.776 217.196-196.266 217.196zM428.468 520.454c-21.72 2.764-41.86 21.325-48.968 47.388-9.083 32.777 5.529 65.159 32.382 73.452 7.898 107.018 73.057 194.291 158.355 216.801-13.822 17.771-31.987 28.828-55.286 30.013 0 0-27.643 16.191-84.114-24.089-131.502-93.592-106.623-304.074-2.764-507.843h151.247c0 0 1.58 7.898 3.949 21.72-69.503 12.637-127.158 67.528-154.801 142.559zM579.32 350.251h-151.247c-2.369 0-4.344 1.185-5.134 3.159-54.496 107.018-84.904 210.088-87.668 297.756-3.159 97.146 28.828 172.572 92.012 217.591 52.522 37.516 82.534 28.433 89.248 25.274 23.299-1.58 43.044-12.637 58.445-32.382 1.185-1.58 1.58-3.554 0.79-5.529s-1.975-3.159-3.949-3.949c-84.509-22.509-146.508-107.413-154.012-211.667 0-2.369-1.975-4.344-4.344-5.134-23.694-7.108-36.331-36.726-28.433-65.949 6.318-23.299 24.089-40.675 43.834-43.044 2.369-0.395 3.949-1.58 4.739-3.949 27.643-74.636 83.719-126.763 150.457-139.005 3.159-0.395 5.529-3.554 4.739-6.713-2.369-13.822-3.949-21.72-3.949-21.72-0.395-2.764-2.764-4.739-5.529-4.739zM431.627 362.099h142.954c0.395 2.764 1.185 6.318 1.975 11.057-67.528 14.611-123.999 67.133-152.432 142.164-23.299 4.739-43.044 24.879-50.152 51.337-9.478 34.356 4.739 68.318 32.382 79.375 9.083 103.859 69.898 188.763 153.617 215.616-12.637 13.032-27.643 20.14-45.414 20.93-0.79 0-1.975 0.395-2.764 0.79 0 0-25.669 13.032-77.796-24.089-137.426-97.936-91.617-320.66-2.369-497.181zM45.414 382.633c-16.981 0-33.172 13.822-37.516 33.567-2.369 10.662-1.185 20.93 3.554 30.013 4.739 9.478 13.032 16.191 22.904 18.165h0.395c3.554 0.79 7.108 0.79 10.267 0.395l2.369 45.809-46.993 143.349c-0.395 0.79-0.395 1.58-0.395 2.369 0.395 5.529 4.344 9.873 9.478 10.662 5.529 1.185 10.662-1.58 13.032-6.318l29.223-56.076 3.159 63.184c0.395 5.529 3.949 9.873 9.083 11.057 0 0 0.395 0 0.395 0 5.134 1.185 10.267-1.185 13.032-5.924 0.395-0.79 0.79-1.58 0.79-2.369l16.981-150.063 20.93-40.675c3.159 1.975 6.318 3.159 9.873 3.949h0.395c19.35 3.949 38.7-11.057 43.439-32.777 4.739-22.509-7.108-43.834-26.458-48.178h-0.395c-19.35-3.949-38.7 11.057-43.439 32.777-0.395 1.58-0.79 3.554-0.79 5.134-0.79 3.554-7.898 27.643-20.93 43.044-5.924-20.93-1.185-48.178-0.79-48.178 0-0.395 0-1.185 0-1.58 0.395-1.185 0.395-1.975 0.79-3.159 4.739-22.114-7.108-43.834-26.458-48.178h-0.395c-1.185 0-3.554 0-5.529 0zM41.465 453.321c-1.185 0-2.764 0-3.949-0.395h-0.395c-6.318-1.185-11.452-5.529-14.611-11.847s-4.344-14.216-2.369-22.114c3.554-15.796 16.586-26.458 29.618-23.694h0.395c13.032 2.764 20.93 18.165 17.376 33.962-0.395 1.185-0.395 1.975-0.79 2.764 0 0.395 0 0.79-0.395 1.185 0 0.395 0 0.79 0 1.185-0.395 2.764-6.713 39.095 5.134 63.579 0.79 1.58 2.369 2.764 3.949 3.159 1.975 0.395 3.554 0 5.134-1.185 20.14-16.981 30.013-51.732 31.197-55.681 0-0.395 0-0.79 0-1.185 0-1.185 0.395-2.764 0.79-4.344 3.554-15.796 16.586-26.458 29.618-23.694h0.395c13.032 2.764 20.93 18.165 17.376 33.962s-16.586 26.458-29.618 23.694h-0.395c-3.554-0.79-7.108-2.764-9.873-5.529-1.185-1.185-3.159-1.975-5.134-1.58s-3.554 1.58-4.344 3.159l-24.879 47.783c-0.395 0.79-0.395 1.185-0.79 1.975l-16.586 147.693-4.344-83.719c0-2.764-1.975-4.739-4.739-5.529-2.764-0.395-5.134 0.79-6.713 3.159l-39.095 75.426c0 0 0 0 0 0l46.598-142.164c0.395-0.79 0.395-1.58 0.395-1.975l-3.554-54.496c0-1.975-1.185-3.554-2.764-4.739s-3.554-1.185-5.529-0.395c-2.369 0.79-4.739 1.58-7.108 1.58zM63.579 519.269c-0.395 2.369 0 4.739 1.185 6.713s3.159 3.159 5.529 3.949v0c4.739 0.79 9.083-1.975 10.267-6.713 0.395-2.369 0-4.739-1.185-6.713s-3.159-3.159-5.529-3.949c-2.369-0.395-4.739 0-6.713 1.185-1.58 1.58-2.764 3.159-3.554 5.529zM655.536 486.492c0-11.452-22.114-30.013-41.070-30.013-19.35 0-41.070 18.56-41.070 30.013s15.796 22.114 41.070 4.344c26.063 17.771 41.070 7.108 41.070-4.344zM614.467 450.162c-21.325 0-46.993 19.745-46.993 35.936 0 7.108 3.949 13.822 10.662 16.981 9.478 5.134 22.904 3.159 36.331-5.529 18.955 11.452 30.802 8.688 36.726 5.529 6.713-3.554 10.267-9.873 10.267-16.981 0-15.796-26.063-35.936-46.993-35.936zM589.588 494.39c-2.369 0-4.344-0.395-6.318-1.58-2.764-1.58-4.344-3.949-4.344-6.713 0-7.503 18.165-24.089 35.146-24.089s35.146 16.981 35.146 24.089c0 2.764-1.58 5.134-3.949 6.713-5.924 3.159-16.586 0.79-27.643-7.108-1.975-1.185-4.739-1.185-6.713 0-7.898 5.924-15.401 8.688-21.325 8.688zM549.703 841.509c0 0 7.898-128.343-137.821-200.215s38.7 366.468 137.821 200.215zM383.844 627.472c-15.401 0-22.904 8.688-26.458 15.401-13.822 26.458 0.395 79.375 18.56 120.050 23.694 52.917 56.471 95.171 88.063 112.942 35.146 19.745 67.528 8.688 91.222-31.197 0.395-0.79 0.79-1.58 0.79-2.764s6.318-133.082-141.375-205.744c-13.032-6.318-22.904-8.688-30.802-8.688zM496.391 873.496c-8.688 0-17.771-2.764-27.248-7.898-63.579-35.541-122.814-176.521-101.49-216.801 6.318-11.847 20.14-12.242 41.070-1.975 132.292 65.159 135.056 179.285 134.661 193.107-13.427 22.114-29.223 33.567-46.993 33.567z" />
<glyph unicode="&#xf034;" glyph-name="wi-fi" horiz-adv-x="768" d="M128 320c-70.656 0-128-57.375-128-128s57.344-128 128-128 128 57.375 128 128-57.344 128-128 128zM128 576c0 0-64-2-64-64s64-64 64-64c141.375 0 256-114.625 256-256 0 0 0-64 64-64s64 64 64 64c0 212-171.969 384-384 384zM128 832c0 0-64 0-64-64s64-64 64-64c282.75 0 512-229.25 512-512 0 0 0-64 64-64s64 64 64 64c0 353.406-286.5 640-640 640z" />
<glyph unicode="&#xf07e;" glyph-name="history" horiz-adv-x="896" d="M448 896c-90.938 0-175.312-27.531-245.938-74.062l-74.062 74.062v-256h256l-88 88c45.438 24.688 96.688 40 152 40 176.75 0 320-143.219 320-320 0-176.75-143.25-320-320-320-176.781 0-320 143.25-320 320 0 45.562 9.781 88.781 27 128h-91v99.406c-39.688-66.906-64-144-64-227.406 0-247.438 200.562-448 448-448s448 200.562 448 448c0 247.438-200.562 448-448 448zM447.031 129l64.969 63v192h128l64 64-64 64h-128l-64 64-128-128 64-64v-192l63.031-63z" />
<glyph unicode="&#xf0c7;" glyph-name="steps" horiz-adv-x="640" d="M136 896c-75.11 0-136-100.29-136-224 0-68.83 17.020-141.84 34-254.54 13.3-88.29 45.67-161.46 102-161.46s94.080 48.79 94.080 137.97c0 30.37-24.97 78.75-26.080 120.030-2.020 74.46 49.93 104.17 49.93 173 0 123.71-42.83 209-117.93 209zM502.97 640c-75.1 0-117.93-85.29-117.93-209 0-68.83 51.95-98.54 49.93-173-1.109-41.28-26.080-89.66-26.080-120.030 0-89.18 37.75-137.97 94.080-137.97s88.7 73.17 102 161.46c16.98 112.7 34 185.71 34 254.54 0 123.71-60.89 224-136 224z" />
</font>
</defs>
</svg>
